<svg width="10" height="10" viewBox="0 0 10 10" fill="none" xmlns="http://www.w3.org/2000/svg">
<g clip-path="url(#clip0_1141_1892)">
<path d="M2.08353 2.99995C2.08353 2.75683 2.1801 2.52368 2.35201 2.35177C2.52392 2.17986 2.75708 2.08328 3.00019 2.08328H3.41686C3.6589 2.08314 3.89106 1.98728 4.06269 1.81661L4.35436 1.52495C4.43955 1.43928 4.54083 1.3713 4.65238 1.32491C4.76393 1.27852 4.88355 1.25464 5.00436 1.25464C5.12517 1.25464 5.24479 1.27852 5.35634 1.32491C5.46789 1.3713 5.56917 1.43928 5.65436 1.52495L5.94603 1.81661C6.11769 1.98745 6.35019 2.08328 6.59186 2.08328H7.00853C7.25164 2.08328 7.4848 2.17986 7.65671 2.35177C7.82862 2.52368 7.92519 2.75683 7.92519 2.99995V3.41661C7.92519 3.65828 8.02103 3.89078 8.19186 4.06245L8.48353 4.35411C8.56919 4.4393 8.63717 4.54058 8.68356 4.65213C8.72995 4.76368 8.75384 4.8833 8.75384 5.00411C8.75384 5.12493 8.72995 5.24455 8.68356 5.3561C8.63717 5.46765 8.56919 5.56893 8.48353 5.65411L8.19186 5.94578C8.02119 6.11741 7.92533 6.34957 7.92519 6.59161V7.00828C7.92519 7.2514 7.82862 7.48455 7.65671 7.65646C7.4848 7.82837 7.25164 7.92495 7.00853 7.92495H6.59186C6.34982 7.92509 6.11765 8.02095 5.94603 8.19161L5.65436 8.48328C5.56917 8.56895 5.46789 8.63693 5.35634 8.68332C5.24479 8.72971 5.12517 8.75359 5.00436 8.75359C4.88355 8.75359 4.76393 8.72971 4.65238 8.68332C4.54083 8.63693 4.43955 8.56895 4.35436 8.48328L4.06269 8.19161C3.89106 8.02095 3.6589 7.92509 3.41686 7.92495H3.00019C2.75708 7.92495 2.52392 7.82837 2.35201 7.65646C2.1801 7.48455 2.08353 7.2514 2.08353 7.00828V6.59161C2.08339 6.34957 1.98753 6.11741 1.81686 5.94578L1.52519 5.65411C1.43953 5.56893 1.37154 5.46765 1.32515 5.3561C1.27876 5.24455 1.25488 5.12493 1.25488 5.00411C1.25488 4.8833 1.27876 4.76368 1.32515 4.65213C1.37154 4.54058 1.43953 4.4393 1.52519 4.35411L1.81686 4.06245C1.98753 3.89082 2.08339 3.65866 2.08353 3.41661V2.99995Z" fill="#372F57" stroke="#372F57" stroke-width="2" stroke-linecap="round" stroke-linejoin="round"/>
<path d="M3.66699 5.04167L4.70866 6.08333L6.79199 4" stroke="#FFF8F0" stroke-width="0.75" stroke-linecap="round" stroke-linejoin="round"/>
</g>
<defs>
<clipPath id="clip0_1141_1892">
<rect width="10" height="10" fill="white"/>
</clipPath>
</defs>
</svg>
