<svg width="16" height="15" viewBox="0 0 16 15" fill="none" xmlns="http://www.w3.org/2000/svg">
<path d="M14.5 14L10.1667 9.66667M1.5 6.05556C1.5 6.71946 1.63077 7.37686 1.88483 7.99023C2.1389 8.6036 2.51129 9.16092 2.98074 9.63037C3.45019 10.0998 4.00751 10.4722 4.62088 10.7263C5.23425 10.9803 5.89165 11.1111 6.55556 11.1111C7.21946 11.1111 7.87686 10.9803 8.49023 10.7263C9.1036 10.4722 9.66092 10.0998 10.1304 9.63037C10.5998 9.16092 10.9722 8.6036 11.2263 7.99023C11.4803 7.37686 11.6111 6.71946 11.6111 6.05556C11.6111 5.39165 11.4803 4.73425 11.2263 4.12088C10.9722 3.50751 10.5998 2.95019 10.1304 2.48074C9.66092 2.01129 9.1036 1.6389 8.49023 1.38483C7.87686 1.13077 7.21946 1 6.55556 1C5.89165 1 5.23425 1.13077 4.62088 1.38483C4.00751 1.6389 3.45019 2.01129 2.98074 2.48074C2.51129 2.95019 2.1389 3.50751 1.88483 4.12088C1.63077 4.73425 1.5 5.39165 1.5 6.05556Z" stroke="#7376FF" stroke-width="1.5" stroke-linecap="round" stroke-linejoin="round"/>
</svg>
