<svg width="15" height="16" viewBox="0 0 15 16" fill="none" xmlns="http://www.w3.org/2000/svg">
<g clip-path="url(#clip0_1292_4043)">
<path d="M5.15167 5.08745L1.16417 5.66558L1.09354 5.67995C0.98663 5.70833 0.889164 5.76458 0.8111 5.84295C0.733036 5.92132 0.67717 6.01901 0.649207 6.12603C0.621243 6.23305 0.622185 6.34558 0.651935 6.45212C0.681685 6.55866 0.739178 6.6554 0.818543 6.73245L3.70729 9.54433L3.02604 13.5162L3.01792 13.585C3.01137 13.6955 3.03433 13.8059 3.08445 13.9046C3.13456 14.0034 3.21003 14.0871 3.30313 14.1471C3.39622 14.2072 3.5036 14.2414 3.61426 14.2463C3.72492 14.2512 3.8349 14.2265 3.93292 14.1749L7.49917 12.2999L11.0573 14.1749L11.1198 14.2037C11.223 14.2443 11.3351 14.2568 11.4446 14.2398C11.5542 14.2228 11.6573 14.177 11.7433 14.107C11.8293 14.037 11.8951 13.9454 11.9341 13.8416C11.973 13.7378 11.9836 13.6255 11.9648 13.5162L11.2829 9.54433L14.1729 6.73183L14.2217 6.6787C14.2913 6.59293 14.337 6.49023 14.354 6.38107C14.371 6.27191 14.3588 6.16019 14.3186 6.05728C14.2784 5.95438 14.2116 5.86397 14.1251 5.79527C14.0386 5.72657 13.9354 5.68204 13.826 5.6662L9.83854 5.08745L8.05604 1.47495C8.00447 1.37029 7.92462 1.28215 7.82554 1.22052C7.72646 1.15889 7.6121 1.12622 7.49542 1.12622C7.37873 1.12622 7.26438 1.15889 7.1653 1.22052C7.06622 1.28215 6.98637 1.37029 6.93479 1.47495L5.15167 5.08745Z" fill="#7376FF" stroke="#7376FF" stroke-linecap="round" stroke-linejoin="round"/>
</g>
<defs>
<clipPath id="clip0_1292_4043">
<rect width="15" height="15" fill="white" transform="translate(0 0.5)"/>
</clipPath>
</defs>
</svg>
