<svg width="228" height="20" viewBox="0 0 228 20" fill="none" xmlns="http://www.w3.org/2000/svg">
<path d="M15.833 3.33325C16.543 3.33325 16.9138 4.15492 16.4855 4.68575L16.4222 4.75575L13.2622 7.91659L16.4222 11.0774C16.9247 11.5791 16.6055 12.4224 15.928 12.4949L15.833 12.4999H4.99967V17.4999C4.99965 17.704 4.92471 17.901 4.78908 18.0536C4.65345 18.2061 4.46655 18.3035 4.26384 18.3274L4.16634 18.3333C3.96223 18.3332 3.76523 18.2583 3.6127 18.1227C3.46017 17.987 3.36272 17.8001 3.33884 17.5974L3.33301 17.4999V4.16659C3.33303 3.96247 3.40797 3.76547 3.5436 3.61294C3.67924 3.46041 3.86613 3.36297 4.06884 3.33909L4.16634 3.33325H15.833Z" stroke="black" stroke-opacity="0.75" stroke-width="2" stroke-linecap="round" stroke-linejoin="round"/>
<rect x="25" y="8" width="22" height="4" rx="2" fill="black" fill-opacity="0.1"/>
<path d="M60.3337 8.33325L62.0004 6.66659V13.3333M56.1671 5.9999C56.1671 5.51367 56.3602 5.04735 56.704 4.70353C57.0478 4.35972 57.5142 4.16656 58.0004 4.16656H58.8337C59.3178 4.16629 59.7821 3.97456 60.1254 3.63323L60.7087 3.0499C60.8791 2.87856 61.0817 2.7426 61.3048 2.64982C61.5279 2.55704 61.7671 2.50928 62.0087 2.50928C62.2503 2.50928 62.4896 2.55704 62.7127 2.64982C62.9358 2.7426 63.1383 2.87856 63.3087 3.0499L63.8921 3.63323C64.2354 3.9749 64.7004 4.16656 65.1837 4.16656H66.0171C66.5033 4.16656 66.9696 4.35972 67.3134 4.70353C67.6572 5.04735 67.8504 5.51367 67.8504 5.9999V6.83323C67.8504 7.31656 68.0421 7.78156 68.3837 8.1249L68.9671 8.70823C69.1384 8.8786 69.2743 9.08116 69.3671 9.30426C69.4599 9.52736 69.5077 9.76661 69.5077 10.0082C69.5077 10.2499 69.4599 10.4891 69.3671 10.7122C69.2743 10.9353 69.1384 11.1379 68.9671 11.3082L68.3837 11.8916C68.0424 12.2348 67.8507 12.6991 67.8504 13.1832V14.0166C67.8504 14.5028 67.6572 14.9691 67.3134 15.3129C66.9696 15.6567 66.5033 15.8499 66.0171 15.8499H65.1837C64.6996 15.8502 64.2353 16.0419 63.8921 16.3832L63.3087 16.9666C63.1383 17.1379 62.9358 17.2739 62.7127 17.3666C62.4896 17.4594 62.2503 17.5072 62.0087 17.5072C61.7671 17.5072 61.5279 17.4594 61.3048 17.3666C61.0817 17.2739 60.8791 17.1379 60.7087 16.9666L60.1254 16.3832C59.7821 16.0419 59.3178 15.8502 58.8337 15.8499H58.0004C57.5142 15.8499 57.0478 15.6567 56.704 15.3129C56.3602 14.9691 56.1671 14.5028 56.1671 14.0166V13.1832C56.1668 12.6991 55.9751 12.2348 55.6337 11.8916L55.0504 11.3082C54.8791 11.1379 54.7431 10.9353 54.6503 10.7122C54.5575 10.4891 54.5098 10.2499 54.5098 10.0082C54.5098 9.76661 54.5575 9.52736 54.6503 9.30426C54.7431 9.08116 54.8791 8.8786 55.0504 8.70823L55.6337 8.1249C55.9751 7.78164 56.1668 7.31731 56.1671 6.83323V5.9999Z" stroke="black" stroke-opacity="0.75" stroke-width="2" stroke-linecap="round" stroke-linejoin="round"/>
<rect x="77" y="8" width="22" height="4" rx="2" fill="black" fill-opacity="0.1"/>
<path d="M112.334 6.66659H114.834C115.055 6.66659 115.267 6.75438 115.423 6.91066C115.579 7.06694 115.667 7.2789 115.667 7.49992V9.16659C115.667 9.3876 115.579 9.59956 115.423 9.75584C115.267 9.91212 115.055 9.99992 114.834 9.99992H113.167C112.946 9.99992 112.734 10.0877 112.578 10.244C112.422 10.4003 112.334 10.6122 112.334 10.8333V12.4999C112.334 12.7209 112.422 12.9329 112.578 13.0892C112.734 13.2455 112.946 13.3333 113.167 13.3333H115.667M108.167 5.9999C108.167 5.51367 108.36 5.04735 108.704 4.70353C109.048 4.35972 109.514 4.16656 110 4.16656H110.834C111.318 4.16629 111.782 3.97456 112.125 3.63323L112.709 3.0499C112.879 2.87856 113.082 2.7426 113.305 2.64982C113.528 2.55704 113.767 2.50928 114.009 2.50928C114.25 2.50928 114.49 2.55704 114.713 2.64982C114.936 2.7426 115.138 2.87856 115.309 3.0499L115.892 3.63323C116.235 3.9749 116.7 4.16656 117.184 4.16656H118.017C118.503 4.16656 118.97 4.35972 119.313 4.70353C119.657 5.04735 119.85 5.51367 119.85 5.9999V6.83323C119.85 7.31656 120.042 7.78156 120.384 8.1249L120.967 8.70823C121.138 8.8786 121.274 9.08116 121.367 9.30426C121.46 9.52736 121.508 9.76661 121.508 10.0082C121.508 10.2499 121.46 10.4891 121.367 10.7122C121.274 10.9353 121.138 11.1379 120.967 11.3082L120.384 11.8916C120.042 12.2348 119.851 12.6991 119.85 13.1832V14.0166C119.85 14.5028 119.657 14.9691 119.313 15.3129C118.97 15.6567 118.503 15.8499 118.017 15.8499H117.184C116.7 15.8502 116.235 16.0419 115.892 16.3832L115.309 16.9666C115.138 17.1379 114.936 17.2739 114.713 17.3666C114.49 17.4594 114.25 17.5072 114.009 17.5072C113.767 17.5072 113.528 17.4594 113.305 17.3666C113.082 17.2739 112.879 17.1379 112.709 16.9666L112.125 16.3832C111.782 16.0419 111.318 15.8502 110.834 15.8499H110C109.514 15.8499 109.048 15.6567 108.704 15.3129C108.36 14.9691 108.167 14.5028 108.167 14.0166V13.1832C108.167 12.6991 107.975 12.2348 107.634 11.8916L107.05 11.3082C106.879 11.1379 106.743 10.9353 106.65 10.7122C106.558 10.4891 106.51 10.2499 106.51 10.0082C106.51 9.76661 106.558 9.52736 106.65 9.30426C106.743 9.08116 106.879 8.8786 107.05 8.70823L107.634 8.1249C107.975 7.78164 108.167 7.31731 108.167 6.83323V5.9999Z" stroke="black" stroke-opacity="0.75" stroke-width="2" stroke-linecap="round" stroke-linejoin="round"/>
<rect x="129" y="8" width="22" height="4" rx="2" fill="black" fill-opacity="0.1"/>
<path d="M164.334 7.49992C164.334 7.2789 164.422 7.06694 164.578 6.91066C164.734 6.75438 164.946 6.66659 165.167 6.66659H166.834C167.055 6.66659 167.267 6.75438 167.423 6.91066C167.579 7.06694 167.667 7.2789 167.667 7.49992V9.16659C167.667 9.3876 167.579 9.59956 167.423 9.75584C167.267 9.91212 167.055 9.99992 166.834 9.99992M166.834 9.99992H165.167M166.834 9.99992C167.055 9.99992 167.267 10.0877 167.423 10.244C167.579 10.4003 167.667 10.6122 167.667 10.8333V12.4999C167.667 12.7209 167.579 12.9329 167.423 13.0892C167.267 13.2455 167.055 13.3333 166.834 13.3333H165.167C164.946 13.3333 164.734 13.2455 164.578 13.0892C164.422 12.9329 164.334 12.7209 164.334 12.4999M160.167 5.9999C160.167 5.51367 160.36 5.04735 160.704 4.70353C161.048 4.35972 161.514 4.16656 162 4.16656H162.834C163.318 4.16629 163.782 3.97456 164.125 3.63323L164.709 3.0499C164.879 2.87856 165.082 2.7426 165.305 2.64982C165.528 2.55704 165.767 2.50928 166.009 2.50928C166.25 2.50928 166.49 2.55704 166.713 2.64982C166.936 2.7426 167.138 2.87856 167.309 3.0499L167.892 3.63323C168.235 3.9749 168.7 4.16656 169.184 4.16656H170.017C170.503 4.16656 170.97 4.35972 171.313 4.70353C171.657 5.04735 171.85 5.51367 171.85 5.9999V6.83323C171.85 7.31656 172.042 7.78156 172.384 8.1249L172.967 8.70823C173.138 8.8786 173.274 9.08116 173.367 9.30426C173.46 9.52736 173.508 9.76661 173.508 10.0082C173.508 10.2499 173.46 10.4891 173.367 10.7122C173.274 10.9353 173.138 11.1379 172.967 11.3082L172.384 11.8916C172.042 12.2348 171.851 12.6991 171.85 13.1832V14.0166C171.85 14.5028 171.657 14.9691 171.313 15.3129C170.97 15.6567 170.503 15.8499 170.017 15.8499H169.184C168.7 15.8502 168.235 16.0419 167.892 16.3832L167.309 16.9666C167.138 17.1379 166.936 17.2739 166.713 17.3666C166.49 17.4594 166.25 17.5072 166.009 17.5072C165.767 17.5072 165.528 17.4594 165.305 17.3666C165.082 17.2739 164.879 17.1379 164.709 16.9666L164.125 16.3832C163.782 16.0419 163.318 15.8502 162.834 15.8499H162C161.514 15.8499 161.048 15.6567 160.704 15.3129C160.36 14.9691 160.167 14.5028 160.167 14.0166V13.1832C160.167 12.6991 159.975 12.2348 159.634 11.8916L159.05 11.3082C158.879 11.1379 158.743 10.9353 158.65 10.7122C158.558 10.4891 158.51 10.2499 158.51 10.0082C158.51 9.76661 158.558 9.52736 158.65 9.30426C158.743 9.08116 158.879 8.8786 159.05 8.70823L159.634 8.1249C159.975 7.78164 160.167 7.31731 160.167 6.83323V5.9999Z" stroke="black" stroke-opacity="0.75" stroke-width="2" stroke-linecap="round" stroke-linejoin="round"/>
<rect x="181" y="8" width="22" height="4" rx="2" fill="black" fill-opacity="0.1"/>
<path d="M214.667 17.4999H221.333M218 14.1666V17.4999M218 14.1666C219.105 14.1666 220.165 13.7276 220.946 12.9462C221.728 12.1648 222.167 11.105 222.167 9.99992V3.33325H213.833V9.99992C213.833 11.105 214.272 12.1648 215.054 12.9462C215.835 13.7276 216.895 14.1666 218 14.1666ZM210.5 7.49992C210.5 7.94195 210.676 8.36587 210.988 8.67843C211.301 8.99099 211.725 9.16659 212.167 9.16659C212.609 9.16659 213.033 8.99099 213.345 8.67843C213.658 8.36587 213.833 7.94195 213.833 7.49992C213.833 7.05789 213.658 6.63397 213.345 6.32141C213.033 6.00885 212.609 5.83325 212.167 5.83325C211.725 5.83325 211.301 6.00885 210.988 6.32141C210.676 6.63397 210.5 7.05789 210.5 7.49992ZM222.167 7.49992C222.167 7.94195 222.342 8.36587 222.655 8.67843C222.967 8.99099 223.391 9.16659 223.833 9.16659C224.275 9.16659 224.699 8.99099 225.012 8.67843C225.324 8.36587 225.5 7.94195 225.5 7.49992C225.5 7.05789 225.324 6.63397 225.012 6.32141C224.699 6.00885 224.275 5.83325 223.833 5.83325C223.391 5.83325 222.967 6.00885 222.655 6.32141C222.342 6.63397 222.167 7.05789 222.167 7.49992Z" stroke="black" stroke-opacity="0.75" stroke-width="2" stroke-linecap="round" stroke-linejoin="round"/>
</svg>
