<svg width="20" height="20" viewBox="0 0 20 20" fill="none" xmlns="http://www.w3.org/2000/svg">
<path d="M8.33325 8.33325L9.99992 6.66659V13.3333M4.16656 5.9999C4.16656 5.51367 4.35972 5.04735 4.70353 4.70353C5.04735 4.35972 5.51367 4.16656 5.9999 4.16656H6.83323C7.31731 4.16629 7.78164 3.97456 8.1249 3.63323L8.70823 3.0499C8.8786 2.87856 9.08116 2.7426 9.30426 2.64982C9.52736 2.55704 9.76661 2.50928 10.0082 2.50928C10.2499 2.50928 10.4891 2.55704 10.7122 2.64982C10.9353 2.7426 11.1379 2.87856 11.3082 3.0499L11.8916 3.63323C12.2349 3.9749 12.6999 4.16656 13.1832 4.16656H14.0166C14.5028 4.16656 14.9691 4.35972 15.3129 4.70353C15.6567 5.04735 15.8499 5.51367 15.8499 5.9999V6.83323C15.8499 7.31656 16.0416 7.78156 16.3832 8.1249L16.9666 8.70823C17.1379 8.8786 17.2739 9.08116 17.3666 9.30426C17.4594 9.52736 17.5072 9.76661 17.5072 10.0082C17.5072 10.2499 17.4594 10.4891 17.3666 10.7122C17.2739 10.9353 17.1379 11.1379 16.9666 11.3082L16.3832 11.8916C16.0419 12.2348 15.8502 12.6991 15.8499 13.1832V14.0166C15.8499 14.5028 15.6567 14.9691 15.3129 15.3129C14.9691 15.6567 14.5028 15.8499 14.0166 15.8499H13.1832C12.6991 15.8502 12.2348 16.0419 11.8916 16.3832L11.3082 16.9666C11.1379 17.1379 10.9353 17.2739 10.7122 17.3666C10.4891 17.4594 10.2499 17.5072 10.0082 17.5072C9.76661 17.5072 9.52736 17.4594 9.30426 17.3666C9.08116 17.2739 8.8786 17.1379 8.70823 16.9666L8.1249 16.3832C7.78164 16.0419 7.31731 15.8502 6.83323 15.8499H5.9999C5.51367 15.8499 5.04735 15.6567 4.70353 15.3129C4.35972 14.9691 4.16656 14.5028 4.16656 14.0166V13.1832C4.16629 12.6991 3.97456 12.2348 3.63323 11.8916L3.0499 11.3082C2.87856 11.1379 2.7426 10.9353 2.64982 10.7122C2.55704 10.4891 2.50928 10.2499 2.50928 10.0082C2.50928 9.76661 2.55704 9.52736 2.64982 9.30426C2.7426 9.08116 2.87856 8.8786 3.0499 8.70823L3.63323 8.1249C3.97456 7.78164 4.16629 7.31731 4.16656 6.83323V5.9999Z" stroke="#2650BB" stroke-opacity="0.35" stroke-width="1.5" stroke-linecap="round" stroke-linejoin="round"/>
</svg>
