<svg width="135" height="135" viewBox="0 0 135 135" fill="none" xmlns="http://www.w3.org/2000/svg">
<g filter="url(#filter0_d_1141_1395)">
<circle cx="67.5" cy="47.5" r="25" fill="#F8F8FF"/>
<g filter="url(#filter1_ddddiiii_1141_1395)">
<path d="M92.5 47.5C92.5 61.3071 81.3071 72.5 67.5 72.5C53.6929 72.5 42.5 61.3071 42.5 47.5C42.5 33.6929 53.6929 22.5 67.5 22.5" stroke="#5759FF" stroke-width="5" stroke-linecap="round"/>
</g>
<path d="M55.7965 52.604C55.5972 52.604 55.4325 52.5563 55.3025 52.461C55.1725 52.3657 55.0945 52.24 55.0685 52.084C55.0425 51.9193 55.0815 51.7373 55.1855 51.538L59.1115 44.154V44.726H54.8995C54.6655 44.726 54.4835 44.6653 54.3535 44.544C54.2322 44.4227 54.1715 44.2537 54.1715 44.037C54.1715 43.8117 54.2322 43.6383 54.3535 43.517C54.4835 43.3957 54.6655 43.335 54.8995 43.335H59.9305C60.1645 43.335 60.3552 43.3957 60.5025 43.517C60.6499 43.6383 60.7235 43.8117 60.7235 44.037C60.7235 44.2277 60.6975 44.3967 60.6455 44.544C60.5935 44.6827 60.5242 44.8343 60.4375 44.999L56.7455 52.058C56.6502 52.2487 56.5245 52.3873 56.3685 52.474C56.2212 52.5607 56.0305 52.604 55.7965 52.604ZM65.3335 52.63C64.8741 52.63 64.4061 52.5693 63.9295 52.448C63.4528 52.3267 63.0151 52.1403 62.6165 51.889C62.4518 51.785 62.3391 51.6637 62.2785 51.525C62.2265 51.3777 62.2135 51.2347 62.2395 51.096C62.2741 50.9487 62.3391 50.8273 62.4345 50.732C62.5385 50.628 62.6598 50.5673 62.7985 50.55C62.9458 50.5327 63.1061 50.5717 63.2795 50.667C63.6001 50.849 63.9251 50.9877 64.2545 51.083C64.5838 51.1783 64.9348 51.226 65.3075 51.226C65.6715 51.226 65.9835 51.161 66.2435 51.031C66.5035 50.901 66.7028 50.719 66.8415 50.485C66.9801 50.251 67.0495 49.978 67.0495 49.666C67.0495 49.1807 66.9021 48.7907 66.6075 48.496C66.3128 48.1927 65.9098 48.041 65.3985 48.041C65.1211 48.041 64.8525 48.0887 64.5925 48.184C64.3325 48.2707 64.0768 48.4267 63.8255 48.652C63.7475 48.7213 63.6478 48.7907 63.5265 48.86C63.4051 48.9207 63.2751 48.951 63.1365 48.951C62.9198 48.951 62.7551 48.8947 62.6425 48.782C62.5298 48.6693 62.4735 48.5133 62.4735 48.314V44.063C62.4735 43.829 62.5341 43.6513 62.6555 43.53C62.7855 43.4 62.9675 43.335 63.2015 43.335H67.4785C67.7125 43.335 67.8901 43.3957 68.0115 43.517C68.1415 43.6297 68.2065 43.7987 68.2065 44.024C68.2065 44.2407 68.1415 44.4097 68.0115 44.531C67.8901 44.6523 67.7125 44.713 67.4785 44.713H64.0985V47.625H63.6695C63.8948 47.3217 64.1938 47.0877 64.5665 46.923C64.9391 46.7583 65.3465 46.676 65.7885 46.676C66.3691 46.676 66.8718 46.8017 67.2965 47.053C67.7298 47.2957 68.0635 47.638 68.2975 48.08C68.5401 48.5133 68.6615 49.0203 68.6615 49.601C68.6615 50.199 68.5271 50.7277 68.2585 51.187C67.9898 51.6377 67.6041 51.993 67.1015 52.253C66.6075 52.5043 66.0181 52.63 65.3335 52.63ZM73.4274 52.396C73.3407 52.552 73.2324 52.6517 73.1024 52.695C72.9811 52.747 72.8554 52.7557 72.7254 52.721C72.6041 52.695 72.5001 52.6343 72.4134 52.539C72.3267 52.4523 72.2747 52.344 72.2574 52.214C72.2401 52.0753 72.2747 51.928 72.3614 51.772L77.1584 43.452C77.2451 43.296 77.3491 43.192 77.4704 43.14C77.6004 43.088 77.7261 43.0793 77.8474 43.114C77.9687 43.14 78.0727 43.2007 78.1594 43.296C78.2461 43.3913 78.2981 43.5083 78.3154 43.647C78.3414 43.777 78.3111 43.9157 78.2244 44.063L73.4274 52.396ZM72.0364 48.808C71.3084 48.808 70.7407 48.5567 70.3334 48.054C69.9261 47.5513 69.7224 46.8667 69.7224 46C69.7224 45.4193 69.8134 44.921 69.9954 44.505C70.1774 44.089 70.4417 43.7683 70.7884 43.543C71.1351 43.3177 71.5511 43.205 72.0364 43.205C72.7644 43.205 73.3321 43.4563 73.7394 43.959C74.1467 44.453 74.3504 45.1333 74.3504 46C74.3504 46.5807 74.2594 47.0833 74.0774 47.508C73.8954 47.924 73.6311 48.2447 73.2844 48.47C72.9377 48.6953 72.5217 48.808 72.0364 48.808ZM72.0364 47.716C72.2444 47.716 72.4221 47.6553 72.5694 47.534C72.7167 47.404 72.8294 47.2133 72.9074 46.962C72.9854 46.7107 73.0244 46.39 73.0244 46C73.0244 45.4193 72.9377 44.9903 72.7644 44.713C72.5911 44.4357 72.3484 44.297 72.0364 44.297C71.8284 44.297 71.6507 44.3577 71.5034 44.479C71.3561 44.6003 71.2434 44.7867 71.1654 45.038C71.0874 45.2893 71.0484 45.61 71.0484 46C71.0484 46.5893 71.1351 47.0227 71.3084 47.3C71.4817 47.5773 71.7244 47.716 72.0364 47.716ZM78.5624 52.63C77.8344 52.63 77.2667 52.3787 76.8594 51.876C76.4521 51.3733 76.2484 50.6887 76.2484 49.822C76.2484 49.2413 76.3394 48.743 76.5214 48.327C76.7034 47.911 76.9677 47.5903 77.3144 47.365C77.6611 47.1397 78.0771 47.027 78.5624 47.027C79.2904 47.027 79.8581 47.2783 80.2654 47.781C80.6727 48.275 80.8764 48.9553 80.8764 49.822C80.8764 50.4027 80.7854 50.9053 80.6034 51.33C80.4214 51.746 80.1571 52.0667 79.8104 52.292C79.4637 52.5173 79.0477 52.63 78.5624 52.63ZM78.5624 51.538C78.7704 51.538 78.9481 51.4773 79.0954 51.356C79.2427 51.2347 79.3554 51.0483 79.4334 50.797C79.5114 50.537 79.5504 50.212 79.5504 49.822C79.5504 49.2413 79.4637 48.8123 79.2904 48.535C79.1171 48.2577 78.8744 48.119 78.5624 48.119C78.3544 48.119 78.1767 48.1797 78.0294 48.301C77.8821 48.4223 77.7694 48.6087 77.6914 48.86C77.6134 49.1113 77.5744 49.432 77.5744 49.822C77.5744 50.4113 77.6611 50.8447 77.8344 51.122C78.0077 51.3993 78.2504 51.538 78.5624 51.538Z" fill="#262834"/>
</g>
<defs>
<filter id="filter0_d_1141_1395" x="0" y="-20" width="135" height="155" filterUnits="userSpaceOnUse" color-interpolation-filters="sRGB">
<feFlood flood-opacity="0" result="BackgroundImageFix"/>
<feColorMatrix in="SourceAlpha" type="matrix" values="0 0 0 0 0 0 0 0 0 0 0 0 0 0 0 0 0 0 127 0" result="hardAlpha"/>
<feOffset dy="20"/>
<feGaussianBlur stdDeviation="20"/>
<feColorMatrix type="matrix" values="0 0 0 0 0 0 0 0 0 0 0 0 0 0 0 0 0 0 0.15 0"/>
<feBlend mode="normal" in2="BackgroundImageFix" result="effect1_dropShadow_1141_1395"/>
<feBlend mode="normal" in="SourceGraphic" in2="effect1_dropShadow_1141_1395" result="shape"/>
</filter>
<filter id="filter1_ddddiiii_1141_1395" x="8" y="8" width="119" height="119" filterUnits="userSpaceOnUse" color-interpolation-filters="sRGB">
<feFlood flood-opacity="0" result="BackgroundImageFix"/>
<feColorMatrix in="SourceAlpha" type="matrix" values="0 0 0 0 0 0 0 0 0 0 0 0 0 0 0 0 0 0 127 0" result="hardAlpha"/>
<feOffset dy="20"/>
<feGaussianBlur stdDeviation="16"/>
<feColorMatrix type="matrix" values="0 0 0 0 0.376471 0 0 0 0 0.380392 0 0 0 0 0.439216 0 0 0 0.24 0"/>
<feBlend mode="normal" in2="BackgroundImageFix" result="effect1_dropShadow_1141_1395"/>
<feColorMatrix in="SourceAlpha" type="matrix" values="0 0 0 0 0 0 0 0 0 0 0 0 0 0 0 0 0 0 127 0" result="hardAlpha"/>
<feOffset dy="2"/>
<feGaussianBlur stdDeviation="4"/>
<feColorMatrix type="matrix" values="0 0 0 0 0.156863 0 0 0 0 0.160784 0 0 0 0 0.239216 0 0 0 0.08 0"/>
<feBlend mode="normal" in2="effect1_dropShadow_1141_1395" result="effect2_dropShadow_1141_1395"/>
<feColorMatrix in="SourceAlpha" type="matrix" values="0 0 0 0 0 0 0 0 0 0 0 0 0 0 0 0 0 0 127 0" result="hardAlpha"/>
<feOffset dy="20"/>
<feGaussianBlur stdDeviation="16"/>
<feColorMatrix type="matrix" values="0 0 0 0 0.45098 0 0 0 0 0.462745 0 0 0 0 1 0 0 0 0.7 0"/>
<feBlend mode="normal" in2="effect2_dropShadow_1141_1395" result="effect3_dropShadow_1141_1395"/>
<feColorMatrix in="SourceAlpha" type="matrix" values="0 0 0 0 0 0 0 0 0 0 0 0 0 0 0 0 0 0 127 0" result="hardAlpha"/>
<feOffset dy="2"/>
<feGaussianBlur stdDeviation="4"/>
<feColorMatrix type="matrix" values="0 0 0 0 0.45098 0 0 0 0 0.462745 0 0 0 0 1 0 0 0 0.5 0"/>
<feBlend mode="normal" in2="effect3_dropShadow_1141_1395" result="effect4_dropShadow_1141_1395"/>
<feBlend mode="normal" in="SourceGraphic" in2="effect4_dropShadow_1141_1395" result="shape"/>
<feColorMatrix in="SourceAlpha" type="matrix" values="0 0 0 0 0 0 0 0 0 0 0 0 0 0 0 0 0 0 127 0" result="hardAlpha"/>
<feOffset dx="5" dy="5"/>
<feGaussianBlur stdDeviation="5"/>
<feComposite in2="hardAlpha" operator="arithmetic" k2="-1" k3="1"/>
<feColorMatrix type="matrix" values="0 0 0 0 1 0 0 0 0 1 0 0 0 0 1 0 0 0 0.25 0"/>
<feBlend mode="normal" in2="shape" result="effect5_innerShadow_1141_1395"/>
<feColorMatrix in="SourceAlpha" type="matrix" values="0 0 0 0 0 0 0 0 0 0 0 0 0 0 0 0 0 0 127 0" result="hardAlpha"/>
<feOffset dx="-5" dy="-5"/>
<feGaussianBlur stdDeviation="5"/>
<feComposite in2="hardAlpha" operator="arithmetic" k2="-1" k3="1"/>
<feColorMatrix type="matrix" values="0 0 0 0 0.61875 0 0 0 0 0.742125 0 0 0 0 0.75 0 0 0 0.25 0"/>
<feBlend mode="normal" in2="effect5_innerShadow_1141_1395" result="effect6_innerShadow_1141_1395"/>
<feColorMatrix in="SourceAlpha" type="matrix" values="0 0 0 0 0 0 0 0 0 0 0 0 0 0 0 0 0 0 127 0" result="hardAlpha"/>
<feOffset dx="5" dy="5"/>
<feGaussianBlur stdDeviation="5"/>
<feComposite in2="hardAlpha" operator="arithmetic" k2="-1" k3="1"/>
<feColorMatrix type="matrix" values="0 0 0 0 1 0 0 0 0 1 0 0 0 0 1 0 0 0 0.25 0"/>
<feBlend mode="normal" in2="effect6_innerShadow_1141_1395" result="effect7_innerShadow_1141_1395"/>
<feColorMatrix in="SourceAlpha" type="matrix" values="0 0 0 0 0 0 0 0 0 0 0 0 0 0 0 0 0 0 127 0" result="hardAlpha"/>
<feOffset dx="-5" dy="-5"/>
<feGaussianBlur stdDeviation="5"/>
<feComposite in2="hardAlpha" operator="arithmetic" k2="-1" k3="1"/>
<feColorMatrix type="matrix" values="0 0 0 0 0.788235 0 0 0 0 0.792157 0 0 0 0 1 0 0 0 1 0"/>
<feBlend mode="normal" in2="effect7_innerShadow_1141_1395" result="effect8_innerShadow_1141_1395"/>
</filter>
</defs>
</svg>
