<svg width="136" height="135" viewBox="0 0 136 135" fill="none" xmlns="http://www.w3.org/2000/svg">
<g filter="url(#filter0_d_1141_1388)">
<circle cx="68" cy="47.5" r="25" fill="#F8F8FF"/>
<path d="M57.2455 51.63C56.8729 51.63 56.4872 51.5737 56.0885 51.461C55.6899 51.3397 55.3172 51.162 54.9705 50.928C54.8319 50.8413 54.7409 50.7287 54.6975 50.59C54.6542 50.4513 54.6455 50.317 54.6715 50.187C54.7062 50.0483 54.7669 49.9313 54.8535 49.836C54.9489 49.732 55.0659 49.6713 55.2045 49.654C55.3432 49.628 55.4949 49.6627 55.6595 49.758C55.9542 49.9313 56.2315 50.0527 56.4915 50.122C56.7515 50.1913 57.0115 50.226 57.2715 50.226C57.7742 50.226 58.1989 50.109 58.5455 49.875C58.8922 49.641 59.1522 49.29 59.3255 48.822C59.5075 48.3453 59.5985 47.7603 59.5985 47.067V46.092H59.7545C59.6939 46.5253 59.5509 46.9023 59.3255 47.223C59.1002 47.5437 58.8142 47.7907 58.4675 47.964C58.1209 48.1287 57.7352 48.211 57.3105 48.211C56.7905 48.211 56.3225 48.0853 55.9065 47.834C55.4992 47.5827 55.1785 47.236 54.9445 46.794C54.7105 46.3433 54.5935 45.8363 54.5935 45.273C54.5935 44.675 54.7192 44.1463 54.9705 43.687C55.2305 43.2277 55.5902 42.868 56.0495 42.608C56.5089 42.3393 57.0332 42.205 57.6225 42.205C58.3852 42.205 59.0309 42.3827 59.5595 42.738C60.0882 43.0933 60.4912 43.6133 60.7685 44.298C61.0459 44.974 61.1845 45.793 61.1845 46.755C61.1845 47.535 61.0935 48.2283 60.9115 48.835C60.7382 49.433 60.4825 49.94 60.1445 50.356C59.8065 50.772 59.3905 51.0883 58.8965 51.305C58.4112 51.5217 57.8609 51.63 57.2455 51.63ZM57.7265 46.885C58.0385 46.885 58.3115 46.8157 58.5455 46.677C58.7882 46.5297 58.9745 46.3303 59.1045 46.079C59.2345 45.819 59.2995 45.5243 59.2995 45.195C59.2995 44.857 59.2345 44.5623 59.1045 44.311C58.9745 44.0597 58.7882 43.8647 58.5455 43.726C58.3115 43.5873 58.0385 43.518 57.7265 43.518C57.4145 43.518 57.1415 43.5873 56.9075 43.726C56.6735 43.8647 56.4872 44.0597 56.3485 44.311C56.2185 44.5623 56.1535 44.857 56.1535 45.195C56.1535 45.5243 56.2185 45.819 56.3485 46.079C56.4872 46.3303 56.6735 46.5297 56.9075 46.677C57.1415 46.8157 57.4145 46.885 57.7265 46.885ZM65.7555 51.63C64.6721 51.63 63.8445 51.2227 63.2725 50.408C62.7005 49.5847 62.4145 48.4147 62.4145 46.898C62.4145 45.8753 62.5401 45.0173 62.7915 44.324C63.0515 43.622 63.4285 43.0933 63.9225 42.738C64.4251 42.3827 65.0361 42.205 65.7555 42.205C66.8475 42.205 67.6751 42.6037 68.2385 43.401C68.8105 44.1983 69.0965 45.3597 69.0965 46.885C69.0965 47.899 68.9665 48.7613 68.7065 49.472C68.4551 50.174 68.0825 50.7113 67.5885 51.084C67.0945 51.448 66.4835 51.63 65.7555 51.63ZM65.7555 50.265C66.3448 50.265 66.7781 49.992 67.0555 49.446C67.3415 48.9 67.4845 48.0463 67.4845 46.885C67.4845 45.7237 67.3415 44.883 67.0555 44.363C66.7781 43.8343 66.3448 43.57 65.7555 43.57C65.1748 43.57 64.7415 43.8343 64.4555 44.363C64.1695 44.883 64.0265 45.7237 64.0265 46.885C64.0265 48.0463 64.1695 48.9 64.4555 49.446C64.7415 49.992 65.1748 50.265 65.7555 50.265ZM73.9274 51.396C73.8407 51.552 73.7324 51.6517 73.6024 51.695C73.4811 51.747 73.3554 51.7557 73.2254 51.721C73.1041 51.695 73.0001 51.6343 72.9134 51.539C72.8267 51.4523 72.7747 51.344 72.7574 51.214C72.7401 51.0753 72.7747 50.928 72.8614 50.772L77.6584 42.452C77.7451 42.296 77.8491 42.192 77.9704 42.14C78.1004 42.088 78.2261 42.0793 78.3474 42.114C78.4687 42.14 78.5727 42.2007 78.6594 42.296C78.7461 42.3913 78.7981 42.5083 78.8154 42.647C78.8414 42.777 78.8111 42.9157 78.7244 43.063L73.9274 51.396ZM72.5364 47.808C71.8084 47.808 71.2407 47.5567 70.8334 47.054C70.4261 46.5513 70.2224 45.8667 70.2224 45C70.2224 44.4193 70.3134 43.921 70.4954 43.505C70.6774 43.089 70.9417 42.7683 71.2884 42.543C71.6351 42.3177 72.0511 42.205 72.5364 42.205C73.2644 42.205 73.8321 42.4563 74.2394 42.959C74.6467 43.453 74.8504 44.1333 74.8504 45C74.8504 45.5807 74.7594 46.0833 74.5774 46.508C74.3954 46.924 74.1311 47.2447 73.7844 47.47C73.4377 47.6953 73.0217 47.808 72.5364 47.808ZM72.5364 46.716C72.7444 46.716 72.9221 46.6553 73.0694 46.534C73.2167 46.404 73.3294 46.2133 73.4074 45.962C73.4854 45.7107 73.5244 45.39 73.5244 45C73.5244 44.4193 73.4377 43.9903 73.2644 43.713C73.0911 43.4357 72.8484 43.297 72.5364 43.297C72.3284 43.297 72.1507 43.3577 72.0034 43.479C71.8561 43.6003 71.7434 43.7867 71.6654 44.038C71.5874 44.2893 71.5484 44.61 71.5484 45C71.5484 45.5893 71.6351 46.0227 71.8084 46.3C71.9817 46.5773 72.2244 46.716 72.5364 46.716ZM79.0624 51.63C78.3344 51.63 77.7667 51.3787 77.3594 50.876C76.9521 50.3733 76.7484 49.6887 76.7484 48.822C76.7484 48.2413 76.8394 47.743 77.0214 47.327C77.2034 46.911 77.4677 46.5903 77.8144 46.365C78.1611 46.1397 78.5771 46.027 79.0624 46.027C79.7904 46.027 80.3581 46.2783 80.7654 46.781C81.1727 47.275 81.3764 47.9553 81.3764 48.822C81.3764 49.4027 81.2854 49.9053 81.1034 50.33C80.9214 50.746 80.6571 51.0667 80.3104 51.292C79.9637 51.5173 79.5477 51.63 79.0624 51.63ZM79.0624 50.538C79.2704 50.538 79.4481 50.4773 79.5954 50.356C79.7427 50.2347 79.8554 50.0483 79.9334 49.797C80.0114 49.537 80.0504 49.212 80.0504 48.822C80.0504 48.2413 79.9637 47.8123 79.7904 47.535C79.6171 47.2577 79.3744 47.119 79.0624 47.119C78.8544 47.119 78.6767 47.1797 78.5294 47.301C78.3821 47.4223 78.2694 47.6087 78.1914 47.86C78.1134 48.1113 78.0744 48.432 78.0744 48.822C78.0744 49.4113 78.1611 49.8447 78.3344 50.122C78.5077 50.3993 78.7504 50.538 79.0624 50.538Z" fill="#262834"/>
<g filter="url(#filter1_ddii_1141_1388)">
<path d="M68 22.5C54.1929 22.5 43 33.6929 43 47.5C43 61.3071 54.1929 72.5 68 72.5C81.8071 72.5 93 61.3071 93 47.5C93 37.5741 87.2153 28.9992 78.8333 24.9628" stroke="#5759FF" stroke-width="5" stroke-linecap="round"/>
</g>
</g>
<defs>
<filter id="filter0_d_1141_1388" x="0.5" y="-20" width="135" height="155" filterUnits="userSpaceOnUse" color-interpolation-filters="sRGB">
<feFlood flood-opacity="0" result="BackgroundImageFix"/>
<feColorMatrix in="SourceAlpha" type="matrix" values="0 0 0 0 0 0 0 0 0 0 0 0 0 0 0 0 0 0 127 0" result="hardAlpha"/>
<feOffset dy="20"/>
<feGaussianBlur stdDeviation="20"/>
<feColorMatrix type="matrix" values="0 0 0 0 0 0 0 0 0 0 0 0 0 0 0 0 0 0 0.15 0"/>
<feBlend mode="normal" in2="BackgroundImageFix" result="effect1_dropShadow_1141_1388"/>
<feBlend mode="normal" in="SourceGraphic" in2="effect1_dropShadow_1141_1388" result="shape"/>
</filter>
<filter id="filter1_ddii_1141_1388" x="8.5" y="8" width="119" height="119" filterUnits="userSpaceOnUse" color-interpolation-filters="sRGB">
<feFlood flood-opacity="0" result="BackgroundImageFix"/>
<feColorMatrix in="SourceAlpha" type="matrix" values="0 0 0 0 0 0 0 0 0 0 0 0 0 0 0 0 0 0 127 0" result="hardAlpha"/>
<feOffset dy="20"/>
<feGaussianBlur stdDeviation="16"/>
<feColorMatrix type="matrix" values="0 0 0 0 0.45098 0 0 0 0 0.462745 0 0 0 0 1 0 0 0 0.7 0"/>
<feBlend mode="normal" in2="BackgroundImageFix" result="effect1_dropShadow_1141_1388"/>
<feColorMatrix in="SourceAlpha" type="matrix" values="0 0 0 0 0 0 0 0 0 0 0 0 0 0 0 0 0 0 127 0" result="hardAlpha"/>
<feOffset dy="2"/>
<feGaussianBlur stdDeviation="4"/>
<feColorMatrix type="matrix" values="0 0 0 0 0.45098 0 0 0 0 0.462745 0 0 0 0 1 0 0 0 0.5 0"/>
<feBlend mode="normal" in2="effect1_dropShadow_1141_1388" result="effect2_dropShadow_1141_1388"/>
<feBlend mode="normal" in="SourceGraphic" in2="effect2_dropShadow_1141_1388" result="shape"/>
<feColorMatrix in="SourceAlpha" type="matrix" values="0 0 0 0 0 0 0 0 0 0 0 0 0 0 0 0 0 0 127 0" result="hardAlpha"/>
<feOffset dx="5" dy="5"/>
<feGaussianBlur stdDeviation="5"/>
<feComposite in2="hardAlpha" operator="arithmetic" k2="-1" k3="1"/>
<feColorMatrix type="matrix" values="0 0 0 0 1 0 0 0 0 1 0 0 0 0 1 0 0 0 0.25 0"/>
<feBlend mode="normal" in2="shape" result="effect3_innerShadow_1141_1388"/>
<feColorMatrix in="SourceAlpha" type="matrix" values="0 0 0 0 0 0 0 0 0 0 0 0 0 0 0 0 0 0 127 0" result="hardAlpha"/>
<feOffset dx="-5" dy="-5"/>
<feGaussianBlur stdDeviation="5"/>
<feComposite in2="hardAlpha" operator="arithmetic" k2="-1" k3="1"/>
<feColorMatrix type="matrix" values="0 0 0 0 0.788235 0 0 0 0 0.792157 0 0 0 0 1 0 0 0 1 0"/>
<feBlend mode="normal" in2="effect3_innerShadow_1141_1388" result="effect4_innerShadow_1141_1388"/>
</filter>
</defs>
</svg>
