<svg width="430" height="405" viewBox="0 0 430 405" fill="none" xmlns="http://www.w3.org/2000/svg">
<g clip-path="url(#clip0_1364_4518)">
<path d="M0 0H430V381C430 394.255 419.255 405 406 405H24C10.7452 405 0 394.255 0 381V0Z" fill="#7578FF"/>
<path d="M-0.77699 145.312C-0.77699 145.312 55.949 163.087 82.3034 190.101C124.048 232.892 88.5569 283.968 122.804 332.911C153.712 377.083 230.633 417.836 230.633 417.836" stroke="#999BFF"/>
<path d="M-33.8406 169.358C-33.8406 169.358 -3.3694 176.678 20.4794 200.742C58.2553 238.858 46.1281 262.919 76.417 307.201C103.753 347.167 173.777 413.862 173.777 413.862" stroke="#999BFF"/>
<path d="M-75.992 186.95C-75.992 186.95 -46.1541 193.524 -23.1509 216.592C13.2856 253.132 0.895849 276.883 29.849 319.593C55.9798 358.138 123.597 421.999 123.597 421.999" stroke="#999BFF"/>
<path d="M271.332 -28.3845C271.332 -28.3845 264.661 -5.1009 279.358 30.6273C297.29 74.2181 353.352 78.4463 369.347 122.799C388.447 175.765 311.537 191.526 334.471 242.907C351.692 281.491 397.294 285.565 417.597 322.529C431.441 347.732 425.472 418.838 425.472 418.838" stroke="#999BFF"/>
<path d="M334.354 -97.8554C334.354 -97.8554 327.683 -74.5719 342.381 -38.8436C360.312 4.74712 416.375 8.97539 432.369 53.3281C451.469 106.294 374.559 122.055 397.493 173.437C414.715 212.02 460.316 216.094 480.62 253.058C494.463 278.261 488.494 349.367 488.494 349.367" stroke="#999BFF"/>
</g>
<defs>
<clipPath id="clip0_1364_4518">
<path d="M0 0H430V381C430 394.255 419.255 405 406 405H24C10.7452 405 0 394.255 0 381V0Z" fill="white"/>
</clipPath>
</defs>
</svg>
