<svg width="14" height="14" viewBox="0 0 14 14" fill="none" xmlns="http://www.w3.org/2000/svg">
<path d="M9.70801 2.30927C10.525 2.78098 11.2046 3.45789 11.6796 4.27298C12.1545 5.08806 12.4084 6.01306 12.416 6.95641C12.4237 7.89976 12.1848 8.82875 11.723 9.6514C11.2613 10.4741 10.5927 11.1618 9.78343 11.6467C8.97418 12.1315 8.05233 12.3966 7.10914 12.4157C6.16596 12.4348 5.23414 12.2072 4.40593 11.7555C3.57773 11.3038 2.88185 10.6436 2.3872 9.84034C1.89255 9.03705 1.61627 8.11849 1.58572 7.1756L1.58301 7.0001L1.58572 6.8246C1.61605 5.88914 1.88826 4.9775 2.37581 4.17856C2.86336 3.37962 3.54961 2.72064 4.36766 2.26587C5.1857 1.81111 6.10763 1.57607 7.04355 1.58367C7.97948 1.59128 8.89746 1.84127 9.70801 2.30927ZM9.00763 5.53381C8.91436 5.44055 8.79027 5.38453 8.65863 5.37625C8.52699 5.36797 8.39685 5.40801 8.29263 5.48885L8.24172 5.53381L6.45801 7.31698L5.75763 6.61715L5.70672 6.57219C5.60249 6.4914 5.47238 6.45141 5.34077 6.45971C5.20916 6.46802 5.0851 6.52404 4.99186 6.61729C4.89861 6.71053 4.84259 6.83459 4.83428 6.9662C4.82598 7.09781 4.86597 7.22792 4.94676 7.33215L4.99172 7.38306L6.07505 8.4664L6.12597 8.51135C6.22096 8.58506 6.33778 8.62506 6.45801 8.62506C6.57824 8.62506 6.69506 8.58506 6.79005 8.51135L6.84097 8.4664L9.00763 6.29973L9.05259 6.24881C9.13344 6.14459 9.17348 6.01446 9.1652 5.88282C9.15692 5.75118 9.1009 5.62708 9.00763 5.53381Z" fill="#108174"/>
</svg>
