<svg width="20" height="20" viewBox="0 0 20 20" fill="none" xmlns="http://www.w3.org/2000/svg">
<path fill-rule="evenodd" clip-rule="evenodd" d="M1.6665 5.71425C1.6665 4.64078 2.09294 3.61129 2.85199 2.85223C3.61104 2.09318 4.64054 1.66675 5.714 1.66675H9.99984C10.2209 1.66675 10.4328 1.75455 10.5891 1.91083C10.7454 2.06711 10.8332 2.27907 10.8332 2.50008C10.8332 2.7211 10.7454 2.93306 10.5891 3.08934C10.4328 3.24562 10.2209 3.33341 9.99984 3.33341H5.714C5.08257 3.33341 4.47699 3.58425 4.0305 4.03074C3.58401 4.47724 3.33317 5.08281 3.33317 5.71425V14.2859C3.33317 14.9174 3.58401 15.5229 4.0305 15.9694C4.47699 16.4159 5.08257 16.6667 5.714 16.6667H14.2857C14.9171 16.6667 15.5227 16.4159 15.9692 15.9694C16.4157 15.5229 16.6665 14.9174 16.6665 14.2859V10.0001C16.6665 9.77907 16.7543 9.56711 16.9106 9.41083C17.0669 9.25455 17.2788 9.16675 17.4998 9.16675C17.7209 9.16675 17.9328 9.25455 18.0891 9.41083C18.2454 9.56711 18.3332 9.77907 18.3332 10.0001V14.2859C18.3332 15.3594 17.9067 16.3889 17.1477 17.1479C16.3886 17.907 15.3591 18.3334 14.2857 18.3334H5.714C4.64054 18.3334 3.61104 17.907 2.85199 17.1479C2.09294 16.3889 1.6665 15.3594 1.6665 14.2859V5.71425Z" fill="white"/>
<path fill-rule="evenodd" clip-rule="evenodd" d="M12.6141 11.0159L10.7766 12.1242L9.91574 10.6967L11.7532 9.58838L11.7557 9.58671C11.8262 9.5443 11.8911 9.49336 11.9491 9.43504L16.1241 5.23838C16.1659 5.19622 16.2062 5.15258 16.2449 5.10755C16.5207 4.78588 16.9291 4.14921 16.4349 3.65254C16.0174 3.23254 15.4191 3.62921 15.0316 3.97004C14.9276 4.06168 14.8275 4.1576 14.7316 4.25754L14.7032 4.28588L10.5866 8.42338C10.4888 8.52055 10.4122 8.63687 10.3616 8.76504L9.67491 10.4925C9.66188 10.5251 9.65943 10.5608 9.66789 10.5948C9.67636 10.6288 9.69531 10.6592 9.72206 10.6818C9.74881 10.7044 9.782 10.718 9.81691 10.7207C9.85183 10.7234 9.88587 10.715 9.91574 10.6967L10.7766 12.1242C9.27241 13.0309 7.47657 11.5075 8.12657 9.87588L8.81407 8.14921C8.94793 7.81179 9.14926 7.50526 9.40574 7.24838L13.5216 3.11004L13.5457 3.08588C13.6682 2.96088 14.0799 2.53921 14.5791 2.23588C14.8516 2.07171 15.2866 1.85421 15.8241 1.81254C16.4407 1.76338 17.0991 1.95754 17.6157 2.47671C18.0112 2.86737 18.2599 3.38242 18.3199 3.93505C18.3612 4.36579 18.2953 4.80006 18.1282 5.19921C17.8866 5.79671 17.4832 6.23588 17.3057 6.41338L13.1307 10.61C12.9752 10.7662 12.803 10.9014 12.6141 11.0159ZM16.3249 5.07754C16.3249 5.07754 16.3216 5.08004 16.3141 5.08254L16.3249 5.07754Z" fill="white"/>
</svg>
