<svg width="19" height="19" viewBox="0 0 19 19" fill="none" xmlns="http://www.w3.org/2000/svg">
<g clip-path="url(#clip0_1294_4246)">
<path d="M9.50016 17.4168C8.40502 17.4168 7.37586 17.2088 6.41266 16.7929C5.44947 16.377 4.61162 15.8131 3.89912 15.1011C3.18662 14.3892 2.62269 13.5513 2.20733 12.5876C1.79197 11.6239 1.58402 10.5947 1.5835 9.50008C1.58297 8.40547 1.79091 7.37631 2.20733 6.41258C2.62375 5.44886 3.18768 4.61101 3.89912 3.89904C4.61057 3.18707 5.44841 2.62314 6.41266 2.20725C7.37691 1.79136 8.40608 1.58342 9.50016 1.58342C9.93558 1.58342 10.3644 1.6164 10.7866 1.68238C11.2088 1.74835 11.6179 1.84731 12.0137 1.97925C12.3172 2.08481 12.5085 2.23997 12.5877 2.44475C12.6668 2.64953 12.6734 2.85061 12.6075 3.048C12.5415 3.24539 12.4196 3.40056 12.2417 3.5135C12.0638 3.62645 11.8625 3.63621 11.6377 3.54279C11.2946 3.42404 10.9484 3.33168 10.599 3.26571C10.2496 3.19974 9.88333 3.16675 9.50016 3.16675C7.7453 3.16675 6.2509 3.78372 5.01696 5.01767C3.78301 6.25161 3.1663 7.74575 3.16683 9.50008C3.16736 11.2544 3.78433 12.7488 5.01775 13.9833C6.25116 15.2178 7.7453 15.8345 9.50016 15.8334C11.255 15.8324 12.7494 15.2157 13.9834 13.9833C15.2173 12.7509 15.834 11.2565 15.8335 9.50008C15.8335 9.26258 15.8203 9.02508 15.7939 8.78758C15.7675 8.55009 15.7279 8.31918 15.6752 8.09488C15.6092 7.84418 15.6422 7.63967 15.7741 7.48133C15.9061 7.323 16.071 7.22404 16.2689 7.18446C16.4668 7.14488 16.6616 7.1747 16.8532 7.27392C17.0447 7.37314 17.1733 7.56103 17.2387 7.83758C17.3047 8.10147 17.3509 8.37196 17.3772 8.64904C17.4036 8.92613 17.4168 9.20981 17.4168 9.50008C17.4168 10.5952 17.2091 11.6244 16.7938 12.5876C16.3784 13.5508 15.8142 14.3886 15.1012 15.1011C14.3882 15.8136 13.5503 16.3778 12.5877 16.7937C11.625 17.2096 10.5958 17.4173 9.50016 17.4168ZM15.8335 3.95842H15.0418C14.8175 3.95842 14.6296 3.88242 14.4782 3.73042C14.3267 3.57842 14.2507 3.39053 14.2502 3.16675C14.2496 2.94297 14.3256 2.75508 14.4782 2.60308C14.6307 2.45108 14.8186 2.37508 15.0418 2.37508H15.8335V1.58342C15.8335 1.35911 15.9095 1.17122 16.0615 1.01975C16.2135 0.868279 16.4014 0.792279 16.6252 0.791751C16.8489 0.791223 17.0371 0.867223 17.1896 1.01975C17.3421 1.17228 17.4179 1.36017 17.4168 1.58342V2.37508H18.2085C18.4328 2.37508 18.621 2.45108 18.773 2.60308C18.925 2.75508 19.0007 2.94297 19.0002 3.16675C18.9996 3.39053 18.9236 3.57868 18.7722 3.73121C18.6207 3.88374 18.4328 3.95947 18.2085 3.95842H17.4168V4.75008C17.4168 4.97439 17.3408 5.16254 17.1888 5.31454C17.0368 5.46654 16.8489 5.54228 16.6252 5.54175C16.4014 5.54122 16.2135 5.46522 16.0615 5.31375C15.9095 5.16228 15.8335 4.97439 15.8335 4.75008V3.95842ZM12.271 8.70842C12.6009 8.70842 12.8814 8.5931 13.1125 8.36246C13.3437 8.13182 13.459 7.85131 13.4585 7.52092C13.458 7.19053 13.3426 6.91028 13.1125 6.68017C12.8824 6.45006 12.6019 6.33447 12.271 6.33342C11.9401 6.33236 11.6598 6.44795 11.4302 6.68017C11.2007 6.91239 11.0851 7.19264 11.0835 7.52092C11.0819 7.8492 11.1975 8.12971 11.4302 8.36246C11.663 8.59521 11.9432 8.71053 12.271 8.70842ZM6.72933 8.70842C7.05919 8.70842 7.3397 8.5931 7.57087 8.36246C7.80204 8.13182 7.91736 7.85131 7.91683 7.52092C7.9163 7.19053 7.80098 6.91028 7.57087 6.68017C7.34076 6.45006 7.06025 6.33447 6.72933 6.33342C6.39841 6.33236 6.11816 6.44795 5.88858 6.68017C5.659 6.91239 5.54341 7.19264 5.54183 7.52092C5.54025 7.8492 5.65583 8.12971 5.88858 8.36246C6.12133 8.59521 6.40158 8.71053 6.72933 8.70842ZM9.50016 13.8543C10.2654 13.8543 10.9713 13.6695 11.6179 13.3001C12.2644 12.9306 12.7856 12.4293 13.1814 11.7959C13.2606 11.6376 13.254 11.4793 13.1616 11.3209C13.0693 11.1626 12.9307 11.0834 12.746 11.0834H6.25433C6.06961 11.0834 5.93107 11.1626 5.83871 11.3209C5.74634 11.4793 5.73975 11.6376 5.81891 11.7959C6.21475 12.4293 6.73936 12.9306 7.39275 13.3001C8.04614 13.6695 8.74861 13.8543 9.50016 13.8543Z" fill="#7578FF"/>
</g>
<defs>
<clipPath id="clip0_1294_4246">
<rect width="19" height="19" fill="white"/>
</clipPath>
</defs>
</svg>
