<svg width="20" height="20" viewBox="0 0 20 20" fill="none" xmlns="http://www.w3.org/2000/svg">
<path d="M15.8335 3.33325C16.5435 3.33325 16.9143 4.15492 16.486 4.68575L16.4227 4.75575L13.2627 7.91658L16.4227 11.0774C16.9252 11.5791 16.606 12.4224 15.9285 12.4949L15.8335 12.4999H5.00016V17.4999C5.00014 17.704 4.9252 17.901 4.78957 18.0536C4.65393 18.2061 4.46704 18.3035 4.26433 18.3274L4.16683 18.3333C3.96272 18.3332 3.76572 18.2583 3.61319 18.1227C3.46066 17.987 3.36321 17.8001 3.33933 17.5974L3.3335 17.4999V4.16659C3.33352 3.96247 3.40846 3.76547 3.54409 3.61294C3.67972 3.46041 3.86662 3.36297 4.06933 3.33909L4.16683 3.33325H15.8335Z" fill="#003362"/>
</svg>
