<svg width="81" height="80" viewBox="0 0 81 80" fill="none" xmlns="http://www.w3.org/2000/svg">
<path d="M8 19.9999V59.9999C8 62.4311 8.96577 64.7626 10.6849 66.4817C12.4039 68.2008 14.7355 69.1666 17.1667 69.1666H63.8333C66.2645 69.1666 68.5961 68.2008 70.3151 66.4817C72.0342 64.7626 73 62.4311 73 59.9999V29.9999C73 27.5688 72.0342 25.2372 70.3151 23.5181C68.5961 21.799 66.2645 20.8333 63.8333 20.8333H39.3667C38.3529 20.8331 37.374 20.4633 36.6133 19.7933L29.04 13.1199C27.3664 11.6464 25.2131 10.8335 22.9833 10.8333H17.1667C14.7355 10.8333 12.4039 11.799 10.6849 13.5181C8.96577 15.2372 8 17.5688 8 19.9999ZM33.7333 38.2333C34.2021 37.7651 34.8375 37.5021 35.5 37.5021C36.1625 37.5021 36.7979 37.7651 37.2667 38.2333L40.2133 41.1799L43.16 38.2333C43.6339 37.7917 44.2607 37.5512 44.9084 37.5627C45.5561 37.5741 46.174 37.8365 46.6321 38.2945C47.0901 38.7526 47.3525 39.3705 47.3639 40.0182C47.3753 40.6658 47.1349 41.2927 46.6933 41.7666L43.75 44.7133L46.6967 47.6599C47.1383 48.1338 47.3787 48.7607 47.3672 49.4083C47.3558 50.056 47.0934 50.674 46.6354 51.132C46.1774 51.59 45.5594 51.8524 44.9117 51.8638C44.2641 51.8753 43.6372 51.6349 43.1633 51.1933L40.2133 48.2499L37.2667 51.1966C37.0378 51.4422 36.7618 51.6392 36.4551 51.7759C36.1485 51.9125 35.8174 51.986 35.4817 51.9919C35.1461 51.9978 34.8126 51.9361 34.5013 51.8103C34.19 51.6846 33.9073 51.4974 33.6699 51.26C33.4325 51.0227 33.2453 50.7399 33.1196 50.4286C32.9939 50.1173 32.9321 49.7839 32.938 49.4482C32.9439 49.1125 33.0174 48.7815 33.1541 48.4748C33.2907 48.1681 33.4877 47.8921 33.7333 47.6633L36.68 44.7133L33.7333 41.7666C33.2652 41.2978 33.0022 40.6624 33.0022 39.9999C33.0022 39.3374 33.2652 38.702 33.7333 38.2333Z" fill="#7376FF"/>
</svg>
