<svg width="27" height="27" viewBox="0 0 27 27" fill="none" xmlns="http://www.w3.org/2000/svg">
<path d="M9.7915 4.5V24.75M14.2915 9H16.5415M14.2915 13.5H16.5415M6.4165 4.5H18.7915C19.3882 4.5 19.9605 4.73705 20.3825 5.15901C20.8045 5.58097 21.0415 6.15326 21.0415 6.75V20.25C21.0415 20.8467 20.8045 21.419 20.3825 21.841C19.9605 22.2629 19.3882 22.5 18.7915 22.5H6.4165C6.11814 22.5 5.83199 22.3815 5.62101 22.1705C5.41003 21.9595 5.2915 21.6734 5.2915 21.375V5.625C5.2915 5.32663 5.41003 5.04048 5.62101 4.82951C5.83199 4.61853 6.11814 4.5 6.4165 4.5Z" stroke="#7376FF" stroke-width="2" stroke-linecap="round" stroke-linejoin="round"/>
</svg>
