<svg width="27" height="27" viewBox="0 0 27 27" fill="none" xmlns="http://www.w3.org/2000/svg">
<path d="M10.125 23.625V16.875C10.125 16.2783 10.3621 15.706 10.784 15.284C11.206 14.8621 11.7783 14.625 12.375 14.625H14.625C15.2217 14.625 15.794 14.8621 16.216 15.284C16.6379 15.706 16.875 16.2783 16.875 16.875V23.625M5.625 13.5H3.375L13.5 3.375L23.625 13.5H21.375V21.375C21.375 21.9717 21.1379 22.544 20.716 22.966C20.294 23.3879 19.7217 23.625 19.125 23.625H7.875C7.27826 23.625 6.70597 23.3879 6.28401 22.966C5.86205 22.544 5.625 21.9717 5.625 21.375V13.5Z" stroke="#7376FF" stroke-width="2" stroke-linecap="round" stroke-linejoin="round"/>
</svg>
