<svg width="27" height="27" viewBox="0 0 27 27" fill="none" xmlns="http://www.w3.org/2000/svg">
<path d="M9.3335 23.625H18.3335M13.8335 19.125V23.625M13.8335 19.125C15.3253 19.125 16.7561 18.5324 17.811 17.4775C18.8659 16.4226 19.4585 14.9918 19.4585 13.5V4.5H8.2085V13.5C8.2085 14.9918 8.80113 16.4226 9.85602 17.4775C10.9109 18.5324 12.3417 19.125 13.8335 19.125ZM3.7085 10.125C3.7085 10.7217 3.94555 11.294 4.36751 11.716C4.78946 12.1379 5.36176 12.375 5.9585 12.375C6.55523 12.375 7.12753 12.1379 7.54949 11.716C7.97144 11.294 8.2085 10.7217 8.2085 10.125C8.2085 9.52826 7.97144 8.95597 7.54949 8.53401C7.12753 8.11205 6.55523 7.875 5.9585 7.875C5.36176 7.875 4.78946 8.11205 4.36751 8.53401C3.94555 8.95597 3.7085 9.52826 3.7085 10.125ZM19.4585 10.125C19.4585 10.7217 19.6955 11.294 20.1175 11.716C20.5395 12.1379 21.1118 12.375 21.7085 12.375C22.3052 12.375 22.8775 12.1379 23.2995 11.716C23.7214 11.294 23.9585 10.7217 23.9585 10.125C23.9585 9.52826 23.7214 8.95597 23.2995 8.53401C22.8775 8.11205 22.3052 7.875 21.7085 7.875C21.1118 7.875 20.5395 8.11205 20.1175 8.53401C19.6955 8.95597 19.4585 9.52826 19.4585 10.125Z" stroke="#C9CAFF" stroke-width="2" stroke-linecap="round" stroke-linejoin="round"/>
</svg>
