<svg width="27" height="27" viewBox="0 0 27 27" fill="none" xmlns="http://www.w3.org/2000/svg">
<path d="M9.33398 23.625H18.334M13.834 19.125V23.625M13.834 19.125C15.3258 19.125 16.7566 18.5324 17.8115 17.4775C18.8664 16.4226 19.459 14.9918 19.459 13.5V4.5H8.20898V13.5C8.20898 14.9918 8.80162 16.4226 9.85651 17.4775C10.9114 18.5324 12.3421 19.125 13.834 19.125ZM3.70898 10.125C3.70898 10.7217 3.94604 11.294 4.36799 11.716C4.78995 12.1379 5.36225 12.375 5.95898 12.375C6.55572 12.375 7.12802 12.1379 7.54997 11.716C7.97193 11.294 8.20898 10.7217 8.20898 10.125C8.20898 9.52826 7.97193 8.95597 7.54997 8.53401C7.12802 8.11205 6.55572 7.875 5.95898 7.875C5.36225 7.875 4.78995 8.11205 4.36799 8.53401C3.94604 8.95597 3.70898 9.52826 3.70898 10.125ZM19.459 10.125C19.459 10.7217 19.696 11.294 20.118 11.716C20.54 12.1379 21.1122 12.375 21.709 12.375C22.3057 12.375 22.878 12.1379 23.3 11.716C23.7219 11.294 23.959 10.7217 23.959 10.125C23.959 9.52826 23.7219 8.95597 23.3 8.53401C22.878 8.11205 22.3057 7.875 21.709 7.875C21.1122 7.875 20.54 8.11205 20.118 8.53401C19.696 8.95597 19.459 9.52826 19.459 10.125Z" stroke="#7376FF" stroke-width="2" stroke-linecap="round" stroke-linejoin="round"/>
</svg>
