<svg width="22" height="22" viewBox="0 0 22 22" fill="none" xmlns="http://www.w3.org/2000/svg">
<path d="M4.8125 2.75C3.90082 2.75 3.02648 3.11216 2.38182 3.75682C1.73716 4.40148 1.375 5.27582 1.375 6.1875V13.0625C1.375 13.5139 1.46391 13.9609 1.63666 14.378C1.80941 14.795 2.06262 15.174 2.38182 15.4932C3.02648 16.1378 3.90082 16.5 4.8125 16.5H5.5V19.1702C5.49995 19.4291 5.57446 19.6825 5.71461 19.9001C5.85476 20.1177 6.05462 20.2904 6.2903 20.3974C6.52598 20.5044 6.7875 20.5413 7.04359 20.5037C7.29967 20.466 7.5395 20.3554 7.73438 20.185L11.946 16.5H17.1875C17.6389 16.5 18.0859 16.4111 18.503 16.2383C18.92 16.0656 19.299 15.8124 19.6182 15.4932C19.9374 15.174 20.1906 14.795 20.3633 14.378C20.5361 13.9609 20.625 13.5139 20.625 13.0625V6.1875C20.625 5.27582 20.2628 4.40148 19.6182 3.75682C18.9735 3.11216 18.0992 2.75 17.1875 2.75H4.8125ZM2.75 6.1875C2.75 5.64049 2.9673 5.11589 3.35409 4.72909C3.74089 4.3423 4.26549 4.125 4.8125 4.125H17.1875C17.7345 4.125 18.2591 4.3423 18.6459 4.72909C19.0327 5.11589 19.25 5.64049 19.25 6.1875V13.0625C19.25 13.6095 19.0327 14.1341 18.6459 14.5209C18.2591 14.9077 17.7345 15.125 17.1875 15.125H11.429L6.875 19.1097V15.125H4.8125C4.26549 15.125 3.74089 14.9077 3.35409 14.5209C2.9673 14.1341 2.75 13.6095 2.75 13.0625V6.1875ZM10.3125 11H17.1875C17.3698 11 17.5447 10.9276 17.6736 10.7986C17.8026 10.6697 17.875 10.4948 17.875 10.3125C17.875 10.1302 17.8026 9.9553 17.6736 9.82636C17.5447 9.69743 17.3698 9.625 17.1875 9.625H10.3125C10.1302 9.625 9.9553 9.69743 9.82636 9.82636C9.69743 9.9553 9.625 10.1302 9.625 10.3125C9.625 10.4948 9.69743 10.6697 9.82636 10.7986C9.9553 10.9276 10.1302 11 10.3125 11ZM7.5625 9.625H4.8125C4.63016 9.625 4.4553 9.69743 4.32636 9.82636C4.19743 9.9553 4.125 10.1302 4.125 10.3125C4.125 10.4948 4.19743 10.6697 4.32636 10.7986C4.4553 10.9276 4.63016 11 4.8125 11H7.5625C7.74484 11 7.9197 10.9276 8.04864 10.7986C8.17757 10.6697 8.25 10.4948 8.25 10.3125C8.25 10.1302 8.17757 9.9553 8.04864 9.82636C7.9197 9.69743 7.74484 9.625 7.5625 9.625ZM4.8125 12.375C4.63016 12.375 4.4553 12.4474 4.32636 12.5764C4.19743 12.7053 4.125 12.8802 4.125 13.0625C4.125 13.2448 4.19743 13.4197 4.32636 13.5486C4.4553 13.6776 4.63016 13.75 4.8125 13.75H11.6875C11.8698 13.75 12.0447 13.6776 12.1736 13.5486C12.3026 13.4197 12.375 13.2448 12.375 13.0625C12.375 12.8802 12.3026 12.7053 12.1736 12.5764C12.0447 12.4474 11.8698 12.375 11.6875 12.375H4.8125ZM14.4375 13.75C14.2552 13.75 14.0803 13.6776 13.9514 13.5486C13.8224 13.4197 13.75 13.2448 13.75 13.0625C13.75 12.8802 13.8224 12.7053 13.9514 12.5764C14.0803 12.4474 14.2552 12.375 14.4375 12.375H17.1875C17.3698 12.375 17.5447 12.4474 17.6736 12.5764C17.8026 12.7053 17.875 12.8802 17.875 13.0625C17.875 13.2448 17.8026 13.4197 17.6736 13.5486C17.5447 13.6776 17.3698 13.75 17.1875 13.75H14.4375Z" fill="#808080"/>
</svg>
