<svg width="145" height="46" viewBox="0 0 145 46" fill="none" xmlns="http://www.w3.org/2000/svg">
<path d="M1.5625 30V7.45312H11.7188C13.6562 7.45312 15.2865 7.75 16.6094 8.34375C17.9427 8.9375 18.9531 9.80729 19.6406 10.9531C20.3281 12.099 20.6719 13.5052 20.6719 15.1719V15.2031C20.6719 16.6094 20.3385 17.8958 19.6719 19.0625C19.0156 20.2292 18.1406 21.0781 17.0469 21.6094L21.3281 30H13.9219L10.3594 22.5938C10.3177 22.5938 10.2708 22.5938 10.2188 22.5938C10.1667 22.5938 10.1146 22.5938 10.0625 22.5938H8.1875V30H1.5625ZM8.1875 17.9219H10.9531C11.849 17.9219 12.5677 17.6667 13.1094 17.1562C13.651 16.6458 13.9219 15.9792 13.9219 15.1562V15.125C13.9219 14.3021 13.6458 13.6354 13.0938 13.125C12.5417 12.6042 11.8281 12.3438 10.9531 12.3438H8.1875V17.9219ZM114.109 30.3125C113.193 30.3125 112.417 29.9948 111.781 29.3594C111.146 28.724 110.828 27.9479 110.828 27.0312C110.828 26.1146 111.146 25.3385 111.781 24.7031C112.417 24.0677 113.193 23.75 114.109 23.75C115.026 23.75 115.802 24.0677 116.438 24.7031C117.073 25.3385 117.391 26.1146 117.391 27.0312C117.391 27.9479 117.073 28.724 116.438 29.3594C115.802 29.9948 115.026 30.3125 114.109 30.3125Z" fill="#0084FF"/>
<path d="M34.4656 30.375C32.601 30.375 30.9969 30.0156 29.6531 29.2969C28.3094 28.5781 27.2729 27.5469 26.5438 26.2031C25.825 24.849 25.4656 23.2396 25.4656 21.375V21.3594C25.4656 19.4844 25.825 17.8802 26.5438 16.5469C27.2625 15.2031 28.2781 14.1719 29.5906 13.4531C30.9135 12.7344 32.4708 12.375 34.2625 12.375C36.0542 12.375 37.6063 12.7292 38.9188 13.4375C40.2417 14.1458 41.2625 15.1458 41.9813 16.4375C42.7104 17.7292 43.075 19.25 43.075 21V22.8125H28.5906V19.1875H40.1063L37.1531 22.5938V20.125C37.1531 19.4271 37.0385 18.8281 36.8094 18.3281C36.5906 17.8281 36.2781 17.4479 35.8719 17.1875C35.4656 16.9167 34.9865 16.7812 34.4344 16.7812C33.8823 16.7812 33.4031 16.9167 32.9969 17.1875C32.5906 17.4479 32.2729 17.8281 32.0438 18.3281C31.825 18.8281 31.7156 19.4271 31.7156 20.125V22.625C31.7156 23.3229 31.8302 23.9219 32.0594 24.4219C32.2885 24.9219 32.6167 25.3073 33.0438 25.5781C33.4708 25.8385 33.9865 25.9688 34.5906 25.9688C35.1531 25.9688 35.6219 25.8802 35.9969 25.7031C36.3719 25.5156 36.6635 25.3021 36.8719 25.0625C37.0906 24.8229 37.226 24.6198 37.2781 24.4531L37.2938 24.4062H42.9969L42.95 24.6094C42.825 25.1719 42.5906 25.7865 42.2469 26.4531C41.9031 27.1094 41.4083 27.7396 40.7625 28.3438C40.1167 28.9375 39.2781 29.4271 38.2469 29.8125C37.226 30.1875 35.9656 30.375 34.4656 30.375ZM48.2281 35.4688V12.75H54.6344V15.8594H54.775C55.0458 15.1302 55.4208 14.5052 55.9 13.9844C56.3896 13.4635 56.9677 13.0677 57.6344 12.7969C58.301 12.5156 59.0406 12.375 59.8531 12.375C61.301 12.375 62.525 12.724 63.525 13.4219C64.5354 14.1094 65.301 15.125 65.8219 16.4688C66.3531 17.8021 66.6188 19.4323 66.6188 21.3594V21.375C66.6188 23.2917 66.3583 24.9219 65.8375 26.2656C65.3271 27.599 64.5719 28.6198 63.5719 29.3281C62.5823 30.026 61.3688 30.375 59.9313 30.375C59.0979 30.375 58.3375 30.2396 57.65 29.9688C56.9729 29.6979 56.3896 29.3125 55.9 28.8125C55.4104 28.3125 55.0302 27.7135 54.7594 27.0156H54.6344V35.4688H48.2281ZM57.3688 25.2188C57.9313 25.2188 58.4156 25.0625 58.8219 24.75C59.2385 24.4375 59.5563 23.9948 59.775 23.4219C60.0042 22.849 60.1188 22.1667 60.1188 21.375V21.3594C60.1188 20.5573 60.0042 19.8698 59.775 19.2969C59.5458 18.724 59.2229 18.2865 58.8063 17.9844C58.4 17.6823 57.9208 17.5312 57.3688 17.5312C56.8167 17.5312 56.3323 17.6823 55.9156 17.9844C55.499 18.2865 55.176 18.724 54.9469 19.2969C54.7177 19.8698 54.6031 20.5625 54.6031 21.375V21.3906C54.6031 22.1927 54.7177 22.8802 54.9469 23.4531C55.176 24.026 55.4938 24.4635 55.9 24.7656C56.3167 25.0677 56.8063 25.2188 57.3688 25.2188ZM71.8344 30V12.75H78.2406V15.8438H78.3656C78.5844 14.7188 79.0167 13.8594 79.6625 13.2656C80.3187 12.6719 81.1625 12.375 82.1937 12.375C82.4646 12.375 82.7302 12.3958 82.9906 12.4375C83.251 12.4792 83.501 12.5417 83.7406 12.625V18.0156C83.4698 17.901 83.1729 17.8125 82.85 17.75C82.5375 17.6875 82.2146 17.6562 81.8812 17.6562C81.0792 17.6562 80.4073 17.7917 79.8656 18.0625C79.324 18.3333 78.9177 18.7396 78.6469 19.2812C78.376 19.8125 78.2406 20.4792 78.2406 21.2812V30H71.8344ZM96.7844 30.375C94.899 30.375 93.2792 30.026 91.925 29.3281C90.5708 28.6198 89.5292 27.599 88.8 26.2656C88.0813 24.9219 87.7219 23.2969 87.7219 21.3906V21.3594C87.7219 19.4844 88.0917 17.875 88.8313 16.5312C89.5813 15.1875 90.6333 14.1615 91.9875 13.4531C93.3417 12.7344 94.9406 12.375 96.7844 12.375C98.6385 12.375 100.243 12.7292 101.597 13.4375C102.951 14.1458 103.998 15.1719 104.738 16.5156C105.488 17.849 105.863 19.4635 105.863 21.3594V21.3906C105.863 23.3073 105.498 24.9375 104.769 26.2812C104.04 27.6146 102.998 28.6302 101.644 29.3281C100.29 30.026 98.6698 30.375 96.7844 30.375ZM96.8 25.625C97.3313 25.625 97.7896 25.4635 98.175 25.1406C98.5604 24.8073 98.8521 24.3281 99.05 23.7031C99.2583 23.0677 99.3625 22.2969 99.3625 21.3906V21.3594C99.3625 20.4635 99.2531 19.7031 99.0344 19.0781C98.826 18.4427 98.5292 17.9583 98.1438 17.625C97.7583 17.2917 97.3052 17.125 96.7844 17.125C96.2635 17.125 95.8104 17.2917 95.425 17.625C95.0396 17.9583 94.7427 18.4427 94.5344 19.0781C94.326 19.7031 94.2219 20.4635 94.2219 21.3594V21.3906C94.2219 22.2969 94.3208 23.0677 94.5188 23.7031C94.7271 24.3281 95.024 24.8073 95.4094 25.1406C95.7948 25.4635 96.2583 25.625 96.8 25.625Z" fill="white"/>
<path d="M4.87012 30L4.87012 42L134.5 42L119.5 30.5" stroke="#0084FF" stroke-width="6.63"/>
</svg>
