<svg width="144" height="144" viewBox="0 0 144 144" fill="none" xmlns="http://www.w3.org/2000/svg">
<path d="M18 130.5H31.5V144H18C8.07188 144 0 135.928 0 126V18C0 8.07188 8.07188 0 18 0H64.5469C69.3281 0 73.9125 1.88438 77.2875 5.25938L102.741 30.7125C106.116 34.0875 108 38.6719 108 43.4531V85.5H94.5V45H72C67.0219 45 63 40.9781 63 36V13.5H18C15.525 13.5 13.5 15.525 13.5 18V126C13.5 128.475 15.525 130.5 18 130.5ZM49.5 99H58.5C67.1906 99 74.25 106.059 74.25 114.75C74.25 123.441 67.1906 130.5 58.5 130.5H54V139.5C54 141.975 51.975 144 49.5 144C47.025 144 45 141.975 45 139.5V103.5C45 101.025 47.025 99 49.5 99ZM58.5 121.5C62.2406 121.5 65.25 118.491 65.25 114.75C65.25 111.009 62.2406 108 58.5 108H54V121.5H58.5ZM85.5 99H94.5C101.953 99 108 105.047 108 112.5V130.5C108 137.953 101.953 144 94.5 144H85.5C83.025 144 81 141.975 81 139.5V103.5C81 101.025 83.025 99 85.5 99ZM94.5 135C96.975 135 99 132.975 99 130.5V112.5C99 110.025 96.975 108 94.5 108H90V135H94.5ZM117 103.5C117 101.025 119.025 99 121.5 99H135C137.475 99 139.5 101.025 139.5 103.5C139.5 105.975 137.475 108 135 108H126V117H135C137.475 117 139.5 119.025 139.5 121.5C139.5 123.975 137.475 126 135 126H126V139.5C126 141.975 123.975 144 121.5 144C119.025 144 117 141.975 117 139.5V103.5Z" fill="#7376FF"/>
</svg>
