<svg width="26" height="26" viewBox="0 0 26 26" fill="none" xmlns="http://www.w3.org/2000/svg">
<path d="M4.3335 19.5C4.3335 18.3507 4.79004 17.2485 5.6027 16.4359C6.41536 15.6232 7.51756 15.1667 8.66683 15.1667H17.3335C18.4828 15.1667 19.585 15.6232 20.3976 16.4359C21.2103 17.2485 21.6668 18.3507 21.6668 19.5C21.6668 20.0747 21.4386 20.6258 21.0322 21.0321C20.6259 21.4384 20.0748 21.6667 19.5002 21.6667H6.50016C5.92553 21.6667 5.37443 21.4384 4.9681 21.0321C4.56177 20.6258 4.3335 20.0747 4.3335 19.5Z" stroke="#808080" stroke-width="2.58333" stroke-linejoin="round"/>
<path d="M13 10.8333C14.7949 10.8333 16.25 9.37827 16.25 7.58334C16.25 5.78842 14.7949 4.33334 13 4.33334C11.2051 4.33334 9.75 5.78842 9.75 7.58334C9.75 9.37827 11.2051 10.8333 13 10.8333Z" stroke="#808080" stroke-width="2.58333"/>
</svg>
