<svg width="22" height="22" viewBox="0 0 22 22" fill="none" xmlns="http://www.w3.org/2000/svg">
<path d="M12.8333 9.16703L10.0833 11.917M18.5973 2.77878C18.6843 2.74876 18.7779 2.74382 18.8676 2.76453C18.9573 2.78523 19.0393 2.83073 19.1043 2.89585C19.1693 2.96096 19.2147 3.04305 19.2353 3.13274C19.2558 3.22243 19.2508 3.31609 19.2206 3.40303L13.7903 18.9222C13.7578 19.015 13.6982 19.0958 13.6192 19.1543C13.5401 19.2128 13.4454 19.2461 13.3472 19.2501C13.2489 19.254 13.1518 19.2284 13.0684 19.1765C12.9849 19.1245 12.919 19.0487 12.8791 18.9589L9.92837 12.3204C9.87873 12.21 9.79035 12.1216 9.67996 12.0719L3.04146 9.12028C2.95189 9.08029 2.87638 9.01437 2.82467 8.93102C2.77296 8.84767 2.74743 8.75074 2.75137 8.65273C2.75532 8.55473 2.78857 8.46016 2.84681 8.38124C2.90506 8.30232 2.98563 8.24269 3.07812 8.21003L18.5973 2.77878Z" stroke="white" stroke-width="1.625" stroke-linecap="round" stroke-linejoin="round"/>
</svg>
