<svg width="26" height="26" viewBox="0 0 26 26" fill="none" xmlns="http://www.w3.org/2000/svg">
<path d="M13.3196 9.76574C12.6528 9.69989 11.982 9.84175 11.3989 10.1719C10.8158 10.5021 10.349 11.0044 10.0624 11.6101C9.77588 12.2158 9.68353 12.8952 9.79804 13.5554C9.91255 14.2156 10.2283 14.8243 10.7021 15.2981C11.1759 15.7719 11.7846 16.0877 12.4448 16.2022C13.105 16.3167 13.7845 16.2244 14.3902 15.9378C14.9959 15.6512 15.4982 15.1844 15.8283 14.6014C16.1585 14.0183 16.3003 13.3474 16.2345 12.6806C16.1594 11.9331 15.8282 11.2345 15.297 10.7033C14.7657 10.172 14.0672 9.84082 13.3196 9.76574ZM21.145 13C21.143 13.3533 21.1171 13.706 21.0673 14.0557L23.3632 15.8564C23.4631 15.9393 23.5305 16.0549 23.5533 16.1828C23.576 16.3106 23.5528 16.4424 23.4876 16.5547L21.3157 20.3125C21.2497 20.4237 21.1466 20.5081 21.0245 20.5507C20.9025 20.5934 20.7693 20.5915 20.6484 20.5456L18.3683 19.6275C18.2426 19.5774 18.1064 19.5593 17.9719 19.5748C17.8375 19.5903 17.709 19.639 17.598 19.7163C17.25 19.956 16.8843 20.1688 16.5041 20.3531C16.3846 20.4112 16.2812 20.4978 16.2031 20.6054C16.125 20.7129 16.0746 20.838 16.0562 20.9696L15.7145 23.4015C15.692 23.53 15.6257 23.6466 15.5268 23.7315C15.4278 23.8165 15.3025 23.8644 15.1721 23.8672H10.8283C10.7001 23.865 10.5765 23.8191 10.4778 23.7373C10.3791 23.6554 10.3113 23.5423 10.2855 23.4168L9.94422 20.9884C9.92506 20.8553 9.87331 20.729 9.79357 20.6208C9.71384 20.5125 9.60859 20.4256 9.48719 20.3679C9.10742 20.1846 8.74299 19.9712 8.39742 19.7295C8.28677 19.6525 8.15869 19.6043 8.02474 19.5891C7.8908 19.574 7.75518 19.5924 7.63012 19.6427L5.35055 20.5603C5.22974 20.6063 5.09658 20.6082 4.97452 20.5657C4.85245 20.5231 4.74932 20.4389 4.68328 20.3277L2.51137 16.5699C2.44607 16.4577 2.42273 16.3258 2.44552 16.198C2.4683 16.0701 2.53572 15.9545 2.63578 15.8717L4.57613 14.3482C4.68244 14.2639 4.76598 14.1543 4.81919 14.0294C4.8724 13.9045 4.89358 13.7684 4.88082 13.6332C4.86254 13.4215 4.85137 13.2102 4.85137 12.9985C4.85137 12.7867 4.86203 12.5785 4.88082 12.3713C4.89219 12.237 4.86996 12.102 4.81616 11.9784C4.76235 11.8549 4.67864 11.7466 4.57258 11.6634L2.63324 10.14C2.53481 10.0568 2.46881 9.94155 2.4468 9.81453C2.4248 9.68752 2.44819 9.55681 2.51289 9.44531L4.6848 5.6875C4.75076 5.57628 4.85386 5.49192 4.97593 5.44928C5.098 5.40664 5.23121 5.40846 5.35207 5.45441L7.63215 6.37254C7.75788 6.4226 7.89408 6.44069 8.02852 6.42518C8.16297 6.40967 8.29146 6.36105 8.4025 6.28367C8.75048 6.04405 9.11614 5.83117 9.49633 5.64687C9.61585 5.58878 9.71924 5.50215 9.79735 5.39463C9.87547 5.28712 9.92591 5.16202 9.94422 5.03039L10.286 2.59848C10.3084 2.47004 10.3748 2.35339 10.4737 2.26845C10.5726 2.18352 10.698 2.13557 10.8283 2.13281H15.1721C15.3003 2.13503 15.424 2.18085 15.5226 2.26273C15.6213 2.3446 15.6892 2.45765 15.715 2.58324L16.0562 5.0116C16.0754 5.14468 16.1272 5.27097 16.2069 5.37923C16.2866 5.48749 16.3919 5.57437 16.5133 5.63215C16.893 5.81539 17.2575 6.02885 17.603 6.27047C17.7137 6.34746 17.8418 6.39571 17.9757 6.41087C18.1097 6.42603 18.2453 6.40762 18.3704 6.3573L20.6499 5.43969C20.7707 5.39369 20.9039 5.39179 21.026 5.43434C21.148 5.47688 21.2512 5.56114 21.3172 5.67227L23.4891 9.43008C23.5544 9.54235 23.5777 9.67415 23.555 9.80202C23.5322 9.92988 23.4647 10.0455 23.3647 10.1283L21.4243 11.6518C21.3176 11.7359 21.2335 11.8453 21.1799 11.9702C21.1262 12.0951 21.1046 12.2314 21.1171 12.3668C21.1339 12.577 21.145 12.7882 21.145 13Z" stroke="#7376FF" stroke-width="1.625" stroke-linecap="round" stroke-linejoin="round"/>
</svg>
