<svg width="26" height="26" viewBox="0 0 26 26" fill="none" xmlns="http://www.w3.org/2000/svg">
<g clip-path="url(#clip0_1037_1790)">
<path d="M7.5835 13L10.8335 16.25L18.4168 8.66665M21.6668 16.25C20.5835 17.3333 23.021 20.3125 21.6668 21.6666C20.3127 23.0208 17.3335 20.5833 16.2502 21.6666C15.1668 22.75 14.6252 24.9166 13.0002 24.9166C11.3752 24.9166 10.8335 22.75 9.75016 21.6666C8.66683 20.5833 5.68766 23.0208 4.3335 21.6666C2.97933 20.3125 5.41683 17.3333 4.3335 16.25C3.25016 15.1666 1.0835 14.625 1.0835 13C1.0835 11.375 3.25016 10.8333 4.3335 9.74998C5.41683 8.66665 2.97933 5.68748 4.3335 4.33331C5.68766 2.97915 8.66683 5.41665 9.75016 4.33331C10.8335 3.24998 11.3752 1.08331 13.0002 1.08331C14.6252 1.08331 15.1668 3.24998 16.2502 4.33331C17.3335 5.41665 20.3127 2.97915 21.6668 4.33331C23.021 5.68748 20.5835 8.66665 21.6668 9.74998C22.7502 10.8333 24.9168 11.375 24.9168 13C24.9168 14.625 22.7502 15.1666 21.6668 16.25Z" stroke="#808080" stroke-width="2.16667"/>
</g>
<defs>
<clipPath id="clip0_1037_1790">
<rect width="26" height="26" fill="white"/>
</clipPath>
</defs>
</svg>
