<svg width="100" height="93" viewBox="0 0 100 93" fill="none" xmlns="http://www.w3.org/2000/svg">
<path d="M30.8876 46.5C25.2632 46.673 20.663 48.8873 17.087 53.1429H10.1085C7.26157 53.1429 4.86598 52.4422 2.92174 51.041C0.977494 49.6398 0.00537109 47.5898 0.00537109 44.8912C0.00537109 32.678 2.15793 26.5714 6.46304 26.5714C6.67135 26.5714 7.42648 26.9347 8.72843 27.6613C10.0304 28.3878 11.7229 29.123 13.806 29.8669C15.8892 30.6108 17.9549 30.9827 20.0033 30.9827C22.3295 30.9827 24.6383 30.5848 26.9297 29.7891C26.7561 31.0692 26.6693 32.2109 26.6693 33.2143C26.6693 38.0234 28.0754 42.452 30.8876 46.5ZM86.6631 79.5586C86.6631 83.7104 85.3959 86.9886 82.8615 89.3931C80.327 91.7977 76.9593 93 72.7583 93H27.2422C23.0412 93 19.6735 91.7977 17.139 89.3931C14.6046 86.9886 13.3373 83.7104 13.3373 79.5586C13.3373 77.7249 13.3981 75.9344 13.5196 74.1872C13.6411 72.44 13.8842 70.5544 14.2487 68.5304C14.6132 66.5064 15.0733 64.6295 15.6288 62.8996C16.1843 61.1696 16.9307 59.483 17.8681 57.8396C18.8055 56.1961 19.8818 54.7949 21.097 53.6359C22.3121 52.4768 23.7963 51.5513 25.5496 50.8594C27.3029 50.1674 29.2385 49.8214 31.3563 49.8214C31.7035 49.8214 32.45 50.1934 33.5957 50.9372C34.7414 51.6811 36.0086 52.5114 37.3974 53.4283C38.7861 54.3451 40.6436 55.1755 42.9697 55.9194C45.2959 56.6632 47.6394 57.0352 50.0002 57.0352C52.3611 57.0352 54.7046 56.6632 57.0308 55.9194C59.3569 55.1755 61.2144 54.3451 62.6031 53.4283C63.9919 52.5114 65.2591 51.6811 66.4048 50.9372C67.5505 50.1934 68.297 49.8214 68.6442 49.8214C70.762 49.8214 72.6976 50.1674 74.4509 50.8594C76.2041 51.5513 77.6884 52.4768 78.9035 53.6359C80.1187 54.7949 81.195 56.1961 82.1324 57.8396C83.0698 59.483 83.8162 61.1696 84.3717 62.8996C84.9272 64.6295 85.3872 66.5064 85.7518 68.5304C86.1163 70.5544 86.3594 72.44 86.4809 74.1872C86.6024 75.9344 86.6631 77.7249 86.6631 79.5586ZM33.3353 13.2857C33.3353 16.9531 32.0333 20.0843 29.4294 22.6791C26.8255 25.274 23.6835 26.5714 20.0033 26.5714C16.3231 26.5714 13.1811 25.274 10.5772 22.6791C7.9733 20.0843 6.67135 16.9531 6.67135 13.2857C6.67135 9.6183 7.9733 6.48716 10.5772 3.8923C13.1811 1.29743 16.3231 0 20.0033 0C23.6835 0 26.8255 1.29743 29.4294 3.8923C32.0333 6.48716 33.3353 9.6183 33.3353 13.2857ZM69.9982 33.2143C69.9982 38.7154 68.0453 43.4121 64.1394 47.3044C60.2336 51.1967 55.5205 53.1429 50.0002 53.1429C44.48 53.1429 39.7669 51.1967 35.8611 47.3044C31.9552 43.4121 30.0023 38.7154 30.0023 33.2143C30.0023 27.7132 31.9552 23.0165 35.8611 19.1242C39.7669 15.2319 44.48 13.2857 50.0002 13.2857C55.5205 13.2857 60.2336 15.2319 64.1394 19.1242C68.0453 23.0165 69.9982 27.7132 69.9982 33.2143ZM99.9951 44.8912C99.9951 47.5898 99.023 49.6398 97.0787 51.041C95.1345 52.4422 92.7389 53.1429 89.892 53.1429H82.9135C79.3375 48.8873 74.7373 46.673 69.1129 46.5C71.9251 42.452 73.3312 38.0234 73.3312 33.2143C73.3312 32.2109 73.2444 31.0692 73.0708 29.7891C75.3622 30.5848 77.671 30.9827 79.9972 30.9827C82.0456 30.9827 84.1113 30.6108 86.1944 29.8669C88.2776 29.123 89.9701 28.3878 91.272 27.6613C92.574 26.9347 93.3291 26.5714 93.5374 26.5714C97.8426 26.5714 99.9951 32.678 99.9951 44.8912ZM93.3291 13.2857C93.3291 16.9531 92.0272 20.0843 89.4233 22.6791C86.8194 25.274 83.6773 26.5714 79.9972 26.5714C76.317 26.5714 73.1749 25.274 70.571 22.6791C67.9671 20.0843 66.6652 16.9531 66.6652 13.2857C66.6652 9.6183 67.9671 6.48716 70.571 3.8923C73.1749 1.29743 76.317 0 79.9972 0C83.6773 0 86.8194 1.29743 89.4233 3.8923C92.0272 6.48716 93.3291 9.6183 93.3291 13.2857Z" fill="#7376FF"/>
</svg>
