<svg width="30" height="31" viewBox="0 0 30 31" fill="none" xmlns="http://www.w3.org/2000/svg">
<path d="M15 28C16.6418 28.002 18.2679 27.6796 19.7847 27.0513C21.3015 26.423 22.6793 25.5012 23.8388 24.3388C25.0012 23.1793 25.923 21.8015 26.5513 20.2847C27.1796 18.7679 27.502 17.1418 27.5 15.5C27.502 13.8582 27.1796 12.2322 26.5513 10.7153C25.923 9.19848 25.0012 7.82074 23.8388 6.66126C22.6793 5.49886 21.3015 4.57702 19.7847 3.94871C18.2679 3.32039 16.6418 2.99798 15 3.00001C13.3582 2.99798 11.7322 3.32039 10.2153 3.94871C8.69848 4.57702 7.32074 5.49886 6.16126 6.66126C4.99886 7.82074 4.07702 9.19848 3.44871 10.7153C2.82039 12.2322 2.49798 13.8582 2.50001 15.5C2.49798 17.1418 2.82039 18.7679 3.44871 20.2847C4.07702 21.8015 4.99886 23.1793 6.16126 24.3388C7.32074 25.5012 8.69848 26.423 10.2153 27.0513C11.7322 27.6796 13.3582 28.002 15 28Z" stroke="#7376FF" stroke-width="2.16667" stroke-linejoin="round"/>
<path fill-rule="evenodd" clip-rule="evenodd" d="M15 23.625C15.4144 23.625 15.8118 23.4604 16.1049 23.1674C16.3979 22.8743 16.5625 22.4769 16.5625 22.0625C16.5625 21.6481 16.3979 21.2507 16.1049 20.9576C15.8118 20.6646 15.4144 20.5 15 20.5C14.5856 20.5 14.1882 20.6646 13.8951 20.9576C13.6021 21.2507 13.4375 21.6481 13.4375 22.0625C13.4375 22.4769 13.6021 22.8743 13.8951 23.1674C14.1882 23.4604 14.5856 23.625 15 23.625Z" fill="#7376FF"/>
<path d="M15 8V18" stroke="#7376FF" stroke-width="2.16667" stroke-linecap="round" stroke-linejoin="round"/>
</svg>
