<svg width="26" height="26" viewBox="0 0 26 26" fill="none" xmlns="http://www.w3.org/2000/svg">
<path d="M20.927 17.7709C20.2915 17.1349 19.5489 16.6157 18.7333 16.2373C19.8835 15.3055 20.6173 13.8836 20.6173 12.289C20.6173 9.47577 18.2712 7.16776 15.4579 7.21092C12.6878 7.25409 10.4559 9.51131 10.4559 12.289C10.4559 13.8836 11.1923 15.3055 12.3399 16.2373C11.5241 16.6155 10.7815 17.1346 10.1462 17.7709C8.75983 19.1598 7.97272 20.993 7.92194 22.948C7.92126 22.9751 7.92601 23.0021 7.93592 23.0273C7.94582 23.0526 7.96068 23.0756 7.97961 23.095C7.99854 23.1144 8.02116 23.1298 8.04614 23.1403C8.07112 23.1508 8.09796 23.1562 8.12506 23.1562H9.54694C9.65612 23.1562 9.74752 23.0699 9.75006 22.9607C9.79831 21.4881 10.395 20.1094 11.4436 19.0633C11.9802 18.5238 12.6185 18.0961 13.3215 17.805C14.0245 17.5139 14.7782 17.3651 15.5391 17.3672C17.0854 17.3672 18.5403 17.9689 19.6346 19.0633C20.6807 20.1094 21.2774 21.4881 21.3282 22.9607C21.3307 23.0699 21.4221 23.1562 21.5313 23.1562H22.9532C22.9803 23.1562 23.0071 23.1508 23.0321 23.1403C23.0571 23.1298 23.0797 23.1144 23.0986 23.095C23.1176 23.0756 23.1324 23.0526 23.1423 23.0273C23.1522 23.0021 23.157 22.9751 23.1563 22.948C23.1055 20.993 22.3184 19.1598 20.927 17.7709ZM15.5391 15.539C14.6708 15.539 13.8532 15.2014 13.2413 14.5869C12.9342 14.2822 12.6916 13.9188 12.528 13.5184C12.3644 13.1179 12.2832 12.6886 12.2891 12.256C12.2967 11.4232 12.6294 10.6183 13.2108 10.0217C13.8202 9.39706 14.6352 9.0492 15.5061 9.03905C16.3669 9.03143 17.2022 9.36659 17.8167 9.96835C18.4464 10.5853 18.7917 11.4105 18.7917 12.289C18.7917 13.1574 18.454 13.9724 17.8395 14.5869C17.5381 14.8898 17.1795 15.1299 16.7847 15.2933C16.3898 15.4568 15.9665 15.5403 15.5391 15.539ZM9.17877 12.9594C9.15592 12.7385 9.14323 12.515 9.14323 12.289C9.14323 11.8853 9.18131 11.4918 9.25241 11.1084C9.27018 11.017 9.22194 10.923 9.13815 10.8849C8.79284 10.7301 8.47545 10.5168 8.20123 10.2476C7.87811 9.93434 7.62385 9.55712 7.45466 9.14006C7.28548 8.723 7.20508 8.27525 7.21862 7.82538C7.24147 7.01034 7.56901 6.23592 8.1403 5.65194C8.76745 5.00956 9.61041 4.65916 10.5067 4.66932C11.3167 4.67694 12.0987 4.98924 12.6903 5.54276C12.8909 5.73065 13.0635 5.93885 13.2083 6.16229C13.259 6.241 13.3581 6.27401 13.4444 6.24354C13.8913 6.08866 14.3635 5.97948 14.8485 5.9287C14.9907 5.91346 15.0719 5.76112 15.0085 5.63416C14.1833 4.00155 12.4973 2.8742 10.5473 2.84374C7.73151 2.80057 5.38542 5.10858 5.38542 7.91932C5.38542 9.51385 6.1192 10.9357 7.2694 11.8676C6.46198 12.2408 5.71803 12.7562 5.07311 13.4012C3.6817 14.79 2.89459 16.6232 2.84381 18.5808C2.84314 18.6079 2.84789 18.6349 2.85779 18.6601C2.8677 18.6854 2.88255 18.7084 2.90148 18.7278C2.92041 18.7472 2.94303 18.7626 2.96801 18.7731C2.993 18.7836 3.01983 18.7891 3.04694 18.789H4.47135C4.58053 18.789 4.67194 18.7027 4.67448 18.5935C4.72272 17.1209 5.3194 15.7422 6.36803 14.6961C7.11452 13.9496 8.02858 13.4316 9.02643 13.1803C9.12545 13.1549 9.19147 13.0609 9.17877 12.9594Z" fill="#808080"/>
</svg>
