<svg width="28" height="29" viewBox="0 0 28 29" fill="none" xmlns="http://www.w3.org/2000/svg">
<g clip-path="url(#clip0_1209_1210)">
<path d="M25 1.5H3C2.46957 1.5 1.96086 1.71071 1.58579 2.08579C1.21071 2.46086 1 2.96957 1 3.5V25.5C1 26.0304 1.21071 26.5391 1.58579 26.9142C1.96086 27.2893 2.46957 27.5 3 27.5H25C25.5304 27.5 26.0391 27.2893 26.4142 26.9142C26.7893 26.5391 27 26.0304 27 25.5V3.5C27 2.96957 26.7893 2.46086 26.4142 2.08579C26.0391 1.71071 25.5304 1.5 25 1.5Z" stroke="white" stroke-width="2" stroke-linecap="round" stroke-linejoin="round"/>
<path d="M14.0001 1.5V5.764C13.5684 5.37789 13.0342 5.12498 12.462 5.03579C11.8898 4.9466 11.304 5.02494 10.7753 5.26137C10.2466 5.49779 9.79767 5.88218 9.48265 6.36814C9.16763 6.85411 9 7.42086 9 8C9 8.57914 9.16763 9.14589 9.48265 9.63186C9.79767 10.1178 10.2466 10.5022 10.7753 10.7386C11.304 10.9751 11.8898 11.0534 12.462 10.9642C13.0342 10.875 13.5684 10.6221 14.0001 10.236V18.764C14.4317 18.3779 14.9659 18.125 15.5381 18.0358C16.1104 17.9466 16.6962 18.0249 17.2248 18.2614C17.7535 18.4978 18.2025 18.8822 18.5175 19.3681C18.8325 19.8541 19.0002 20.4209 19.0002 21C19.0002 21.5791 18.8325 22.1459 18.5175 22.6319C18.2025 23.1178 17.7535 23.5022 17.2248 23.7386C16.6962 23.9751 16.1104 24.0534 15.5381 23.9642C14.9659 23.875 14.4317 23.6221 14.0001 23.236V27.5" stroke="white" stroke-width="2" stroke-linecap="round" stroke-linejoin="round"/>
<path d="M1 14.5H5.264C4.87789 14.9317 4.62498 15.4658 4.53579 16.0381C4.4466 16.6103 4.52494 17.1961 4.76137 17.7248C4.99779 18.2535 5.38218 18.7024 5.86814 19.0174C6.35411 19.3325 6.92086 19.5001 7.5 19.5001C8.07914 19.5001 8.64589 19.3325 9.13186 19.0174C9.61782 18.7024 10.0022 18.2535 10.2386 17.7248C10.4751 17.1961 10.5534 16.6103 10.4642 16.0381C10.375 15.4658 10.1221 14.9317 9.736 14.5H18.264C17.8779 14.0684 17.625 13.5342 17.5358 12.962C17.4466 12.3897 17.5249 11.8039 17.7614 11.2752C17.9978 10.7466 18.3822 10.2976 18.8681 9.98259C19.3541 9.66757 19.9209 9.49994 20.5 9.49994C21.0791 9.49994 21.6459 9.66757 22.1319 9.98259C22.6178 10.2976 23.0022 10.7466 23.2386 11.2752C23.4751 11.8039 23.5534 12.3897 23.4642 12.962C23.375 13.5342 23.1221 14.0684 22.736 14.5H27" stroke="white" stroke-width="2" stroke-linecap="round" stroke-linejoin="round"/>
</g>
<defs>
<clipPath id="clip0_1209_1210">
<rect width="28" height="28" fill="white" transform="translate(0 0.5)"/>
</clipPath>
</defs>
</svg>
