<svg width="28" height="29" viewBox="0 0 28 29" fill="none" xmlns="http://www.w3.org/2000/svg">
<path d="M23.6246 19.8725V9.12751C24.2241 8.9756 24.7726 8.66757 25.2144 8.23477C25.6561 7.80197 25.9753 7.25986 26.1394 6.66361C26.3035 6.06737 26.3067 5.43828 26.1487 4.84039C25.9907 4.2425 25.6771 3.69716 25.2398 3.25987C24.8025 2.82258 24.2571 2.50896 23.6593 2.35094C23.0614 2.19291 22.4323 2.19613 21.836 2.36025C21.2398 2.52437 20.6977 2.84355 20.2649 3.28528C19.8321 3.72701 19.524 4.27553 19.3721 4.87501H8.62714C8.47523 4.27553 8.1672 3.72701 7.7344 3.28528C7.3016 2.84355 6.75949 2.52437 6.16325 2.36025C5.567 2.19613 4.93792 2.19291 4.34003 2.35094C3.74214 2.50896 3.19679 2.82258 2.7595 3.25987C2.32221 3.69716 2.00859 4.2425 1.85057 4.84039C1.69255 5.43828 1.69576 6.06737 1.85988 6.66361C2.02401 7.25986 2.34318 7.80197 2.78491 8.23477C3.22665 8.66757 3.77517 8.9756 4.37464 9.12751V19.8725C3.77517 20.0244 3.22665 20.3324 2.78491 20.7652C2.34318 21.198 2.02401 21.7402 1.85988 22.3364C1.69576 22.9326 1.69255 23.5617 1.85057 24.1596C2.00859 24.7575 2.32221 25.3029 2.7595 25.7401C3.19679 26.1774 3.74214 26.4911 4.34003 26.6491C4.93792 26.8071 5.567 26.8039 6.16325 26.6398C6.75949 26.4756 7.3016 26.1565 7.7344 25.7147C8.1672 25.273 8.47523 24.7245 8.62714 24.125H19.3721C19.524 24.7245 19.8321 25.273 20.2649 25.7147C20.6977 26.1565 21.2398 26.4756 21.836 26.6398C22.4323 26.8039 23.0614 26.8071 23.6593 26.6491C24.2571 26.4911 24.8025 26.1774 25.2398 25.7401C25.6771 25.3029 25.9907 24.7575 26.1487 24.1596C26.3067 23.5617 26.3035 22.9326 26.1394 22.3364C25.9753 21.7402 25.6561 21.198 25.2144 20.7652C24.7726 20.3324 24.2241 20.0244 23.6246 19.8725ZM22.7496 4.00001C23.0958 4.00001 23.4341 4.10264 23.7219 4.29493C24.0097 4.48723 24.234 4.76054 24.3664 5.08031C24.4989 5.40008 24.5335 5.75195 24.466 6.09141C24.3985 6.43088 24.2318 6.7427 23.9871 6.98744C23.7423 7.23219 23.4305 7.39886 23.091 7.46638C22.7516 7.53391 22.3997 7.49925 22.0799 7.3668C21.7602 7.23434 21.4869 7.01004 21.2946 6.72225C21.1023 6.43447 20.9996 6.09612 20.9996 5.75001C20.9996 5.28588 21.184 4.84076 21.5122 4.51257C21.8404 4.18438 22.2855 4.00001 22.7496 4.00001ZM3.49964 5.75001C3.49964 5.40389 3.60228 5.06554 3.79457 4.77776C3.98686 4.48997 4.26017 4.26567 4.57994 4.13322C4.89971 4.00076 5.25158 3.96611 5.59105 4.03363C5.93051 4.10116 6.24234 4.26783 6.48708 4.51257C6.73182 4.75731 6.89849 5.06913 6.96601 5.4086C7.03354 5.74807 6.99888 6.09993 6.86643 6.4197C6.73398 6.73947 6.50967 7.01279 6.22189 7.20508C5.9341 7.39737 5.59576 7.50001 5.24964 7.50001C4.78551 7.50001 4.34039 7.31563 4.0122 6.98744C3.68401 6.65926 3.49964 6.21414 3.49964 5.75001ZM5.24964 25C4.90352 25 4.56518 24.8974 4.27739 24.7051C3.98961 24.5128 3.7653 24.2395 3.63285 23.9197C3.5004 23.5999 3.46574 23.2481 3.53327 22.9086C3.60079 22.5691 3.76746 22.2573 4.0122 22.0126C4.25695 21.7678 4.56877 21.6012 4.90823 21.5336C5.2477 21.4661 5.59957 21.5008 5.91934 21.6332C6.23911 21.7657 6.51242 21.99 6.70471 22.2778C6.897 22.5655 6.99964 22.9039 6.99964 23.25C6.99964 23.7141 6.81527 24.1593 6.48708 24.4874C6.15889 24.8156 5.71377 25 5.24964 25ZM19.3721 22.375H8.62714C8.47003 21.7731 8.15535 21.224 7.7155 20.7842C7.27564 20.3443 6.72652 20.0296 6.12464 19.8725V9.12751C6.72652 8.97039 7.27564 8.65571 7.7155 8.21586C8.15535 7.77601 8.47003 7.22688 8.62714 6.62501H19.3721C19.5293 7.22688 19.8439 7.77601 20.2838 8.21586C20.7236 8.65571 21.2728 8.97039 21.8746 9.12751V19.8725C21.2728 20.0296 20.7236 20.3443 20.2838 20.7842C19.8439 21.224 19.5293 21.7731 19.3721 22.375ZM22.7496 25C22.4035 25 22.0652 24.8974 21.7774 24.7051C21.4896 24.5128 21.2653 24.2395 21.1329 23.9197C21.0004 23.5999 20.9657 23.2481 21.0333 22.9086C21.1008 22.5691 21.2675 22.2573 21.5122 22.0126C21.7569 21.7678 22.0688 21.6012 22.4082 21.5336C22.7477 21.4661 23.0996 21.5008 23.4193 21.6332C23.7391 21.7657 24.0124 21.99 24.2047 22.2778C24.397 22.5655 24.4996 22.9039 24.4996 23.25C24.4996 23.7141 24.3153 24.1593 23.9871 24.4874C23.6589 24.8156 23.2138 25 22.7496 25Z" fill="white"/>
<path d="M15.8819 13.4106C17.1748 14.317 17.1548 16.0647 16.1768 17.0239L16.544 17.9399L13.9405 18.9839L13.6221 18.1899C12.2946 18.2714 11.0035 17.1908 11.1231 15.6557L11.4971 10.854L13.1417 14.3589C12.865 14.5615 12.685 14.8882 12.6846 15.2573C12.6846 15.8731 13.1841 16.3725 13.7999 16.3725C14.4155 16.3723 14.9151 15.873 14.9151 15.2573C14.9145 14.6421 14.4151 14.1433 13.7999 14.1431C13.7319 14.1431 13.6653 14.15 13.6006 14.1616L11.96 10.6616L15.8819 13.4106Z" fill="white"/>
</svg>
