<svg width="28" height="29" viewBox="0 0 28 29" fill="none" xmlns="http://www.w3.org/2000/svg">
<g clip-path="url(#clip0_1209_1217)">
<path d="M0 10.125C0 9.64175 0.391751 9.25 0.875 9.25H4.375C4.85825 9.25 5.25 9.64175 5.25 10.125C5.25 10.6082 4.85825 11 4.375 11H0.875C0.391751 11 0 10.6082 0 10.125ZM8.75 1.375C8.75 0.891751 9.14175 0.5 9.625 0.5C10.1082 0.5 10.5 0.891751 10.5 1.375V4.875C10.5 5.35825 10.1082 5.75 9.625 5.75C9.14175 5.75 8.75 5.35825 8.75 4.875V1.375ZM10.5 18.875C10.5 19.3582 10.1082 19.75 9.625 19.75C9.14175 19.75 8.75 19.3582 8.75 18.875V17.4874C8.75 16.7079 9.6925 16.3175 10.2437 16.8687C10.4078 17.0328 10.5 17.2554 10.5 17.4874V18.875ZM19.25 10.125C19.25 10.6082 18.8582 11 18.375 11H16.9874C16.7554 11 16.5328 10.9078 16.3687 10.7437C15.8175 10.1925 16.2079 9.25 16.9874 9.25H18.375C18.8582 9.25 19.25 9.64175 19.25 10.125ZM4.86062 13.6504C5.20228 13.3087 5.75622 13.3087 6.09788 13.6504C6.43953 13.992 6.43953 14.546 6.09788 14.8876L2.13763 18.8479C1.79597 19.1895 1.24203 19.1895 0.900375 18.8479C0.558718 18.5062 0.558718 17.9523 0.900375 17.6106L4.86062 13.6504ZM17.1106 1.40038C17.4523 1.05872 18.0062 1.05872 18.3479 1.40037C18.6895 1.74203 18.6895 2.29597 18.3479 2.63763L14.3876 6.59788C14.046 6.93953 13.492 6.93953 13.1504 6.59788C12.8087 6.25622 12.8087 5.70228 13.1504 5.36062L17.1106 1.40038ZM0.844375 1.46688C1.18603 1.12522 1.73997 1.12522 2.08162 1.46688L6.90812 6.29338C7.24978 6.63503 7.24978 7.18897 6.90812 7.53063C6.56647 7.87228 6.01253 7.87228 5.67088 7.53062L0.844375 2.70413C0.502718 2.36247 0.502718 1.80853 0.844375 1.46688ZM12.4344 9.41662C11.4544 8.44656 9.88081 8.43137 8.8823 9.38233C7.84867 10.3667 7.82449 12.0079 8.82868 13.0223L22.3213 26.6527C23.3366 27.6783 24.9863 27.7017 26.0302 26.7052C27.109 25.6755 27.1246 23.9584 26.0647 22.9093L12.4344 9.41662ZM10.1032 10.6151C10.4241 10.3401 10.9039 10.3634 11.1965 10.6682L14.3661 13.9699C14.6488 14.2644 14.644 14.731 14.3554 15.0196C14.0624 15.3126 13.5876 15.3126 13.2946 15.0196L10.0584 11.7834C9.73021 11.4552 9.75087 10.9171 10.1032 10.6151Z" fill="white"/>
</g>
<defs>
<clipPath id="clip0_1209_1217">
<rect width="28" height="28" fill="white" transform="translate(0 0.5)"/>
</clipPath>
</defs>
</svg>
