<svg width="22" height="22" viewBox="0 0 22 22" fill="none" xmlns="http://www.w3.org/2000/svg">
<path d="M16.5002 7.33333C16.5002 7.81956 16.307 8.28588 15.9632 8.6297C15.6194 8.97351 15.1531 9.16667 14.6668 9.16667C14.1806 9.16667 13.7143 8.97351 13.3705 8.6297C13.0267 8.28588 12.8335 7.81956 12.8335 7.33333C12.8335 6.8471 13.0267 6.38079 13.3705 6.03697C13.7143 5.69315 14.1806 5.5 14.6668 5.5C15.1531 5.5 15.6194 5.69315 15.9632 6.03697C16.307 6.38079 16.5002 6.8471 16.5002 7.33333Z" fill="#7376FF"/>
<path fill-rule="evenodd" clip-rule="evenodd" d="M10.9479 1.14545H11.0524C13.169 1.14545 14.8272 1.14545 16.1216 1.31961C17.4452 1.49745 18.4902 1.86961 19.3107 2.68911C20.1311 3.50953 20.5023 4.55453 20.6802 5.87911C20.8543 7.17253 20.8543 8.83078 20.8543 10.9474V11.028C20.8543 12.7779 20.8543 14.2098 20.759 15.3758C20.6637 16.5491 20.4684 17.5272 20.0302 18.3412C19.8384 18.6993 19.5985 19.0223 19.3107 19.3101C18.4902 20.1305 17.4452 20.5018 16.1207 20.6796C14.8272 20.8538 13.169 20.8538 11.0524 20.8538H10.9479C8.83133 20.8538 7.17308 20.8538 5.87875 20.6796C4.55508 20.5018 3.51008 20.1296 2.68966 19.3101C1.96275 18.5832 1.58691 17.6784 1.388 16.5546C1.19091 15.4519 1.15516 14.0796 1.14783 12.3764C1.14661 11.9426 1.146 11.4836 1.146 10.9996V10.9464C1.146 8.82987 1.146 7.17161 1.32016 5.87728C1.498 4.55361 1.87016 3.50861 2.68966 2.6882C3.51008 1.86778 4.55508 1.49653 5.87966 1.3187C7.17308 1.14453 8.83133 1.14453 10.9479 1.14453M6.06208 2.68086C4.89058 2.83853 4.18383 3.1392 3.66225 3.66078C3.13975 4.18328 2.84 4.88911 2.68233 6.06153C2.52283 7.2532 2.521 8.81886 2.521 10.9987V11.7724L3.43858 10.9694C3.84106 10.617 4.36242 10.4309 4.89703 10.4486C5.43164 10.4663 5.93953 10.6865 6.31783 11.0647L10.2503 14.9972C10.5555 15.3023 10.9585 15.49 11.3884 15.5272C11.8183 15.5644 12.2476 15.4488 12.6007 15.2007L12.8738 15.0082C13.3832 14.6503 13.999 14.4758 14.6204 14.5132C15.2418 14.5507 15.8321 14.7979 16.2948 15.2144L18.889 17.5492C19.1512 17.001 19.3061 16.2805 19.3886 15.2639C19.4784 14.1594 19.4793 12.7825 19.4793 10.9987C19.4793 8.81886 19.4775 7.2532 19.318 6.06153C19.1603 4.88911 18.8597 4.18236 18.3381 3.65986C17.8156 3.13828 17.1097 2.83853 15.9373 2.68086C14.7457 2.52136 13.18 2.51953 11.0002 2.51953C8.82033 2.51953 7.25375 2.52136 6.06208 2.68086Z" fill="#7376FF"/>
</svg>
