<svg width="26" height="26" viewBox="0 0 26 26" fill="none" xmlns="http://www.w3.org/2000/svg">
<path d="M5.28125 16.25H3.65625C3.43188 16.25 3.25 16.4319 3.25 16.6562V23.9688C3.25 24.1931 3.43188 24.375 3.65625 24.375H5.28125C5.50562 24.375 5.6875 24.1931 5.6875 23.9688V16.6562C5.6875 16.4319 5.50562 16.25 5.28125 16.25Z" stroke="#7376FF" stroke-width="1.625" stroke-linecap="round" stroke-linejoin="round"/>
<path d="M16.6562 11.375H15.0312C14.8069 11.375 14.625 11.5569 14.625 11.7812V23.9688C14.625 24.1931 14.8069 24.375 15.0312 24.375H16.6562C16.8806 24.375 17.0625 24.1931 17.0625 23.9688V11.7812C17.0625 11.5569 16.8806 11.375 16.6562 11.375Z" stroke="#7376FF" stroke-width="1.625" stroke-linecap="round" stroke-linejoin="round"/>
<path d="M22.3438 5.6875H20.7188C20.4944 5.6875 20.3125 5.86938 20.3125 6.09375V23.9688C20.3125 24.1931 20.4944 24.375 20.7188 24.375H22.3438C22.5681 24.375 22.75 24.1931 22.75 23.9688V6.09375C22.75 5.86938 22.5681 5.6875 22.3438 5.6875Z" stroke="#7376FF" stroke-width="1.625" stroke-linecap="round" stroke-linejoin="round"/>
<path d="M10.9688 1.625H9.34375C9.11938 1.625 8.9375 1.80688 8.9375 2.03125V23.9688C8.9375 24.1931 9.11938 24.375 9.34375 24.375H10.9688C11.1931 24.375 11.375 24.1931 11.375 23.9688V2.03125C11.375 1.80688 11.1931 1.625 10.9688 1.625Z" stroke="#7376FF" stroke-width="1.625" stroke-linecap="round" stroke-linejoin="round"/>
</svg>
