<svg width="22" height="22" viewBox="0 0 22 22" fill="none" xmlns="http://www.w3.org/2000/svg">
<path d="M5.9585 6.87467C5.9585 7.11779 6.05507 7.35095 6.22698 7.52286C6.39889 7.69476 6.63205 7.79134 6.87516 7.79134C7.11828 7.79134 7.35144 7.69476 7.52334 7.52286C7.69525 7.35095 7.79183 7.11779 7.79183 6.87467C7.79183 6.63156 7.69525 6.3984 7.52334 6.22649C7.35144 6.05459 7.11828 5.95801 6.87516 5.95801C6.63205 5.95801 6.39889 6.05459 6.22698 6.22649C6.05507 6.3984 5.9585 6.63156 5.9585 6.87467Z" stroke="#7376FF" stroke-width="2.16667" stroke-linecap="round" stroke-linejoin="round"/>
<path d="M2.75 5.5V10.241C2.7501 10.7272 2.94333 11.1934 3.28717 11.5372L10.3547 18.6047C10.769 19.0189 11.3308 19.2516 11.9167 19.2516C12.5025 19.2516 13.0644 19.0189 13.4787 18.6047L18.6047 13.4787C19.0189 13.0644 19.2516 12.5025 19.2516 11.9167C19.2516 11.3308 19.0189 10.769 18.6047 10.3547L11.5372 3.28717C11.1934 2.94333 10.7272 2.7501 10.241 2.75H5.5C4.77065 2.75 4.07118 3.03973 3.55546 3.55546C3.03973 4.07118 2.75 4.77065 2.75 5.5Z" stroke="#7376FF" stroke-width="2.16667" stroke-linecap="round" stroke-linejoin="round"/>
</svg>
